<?xml version="1.0" encoding="utf-8"?>
<!-- Generator: Adobe Illustrator 25.4.1, SVG Export Plug-In . SVG Version: 6.00 Build 0)  -->
<svg version="1.1" id="Layer_1" xmlns="http://www.w3.org/2000/svg" xmlns:xlink="http://www.w3.org/1999/xlink" x="0px" y="0px"
	 viewBox="0 0 841.9 595.3" style="enable-background:new 0 0 841.9 595.3;" xml:space="preserve">
<style type="text/css">
	.st0{fill:#D0A57C;stroke:#1D1D1B;stroke-miterlimit:10;}
	.st1{fill-rule:evenodd;clip-rule:evenodd;fill:#FFFFFF;}
	.st2{enable-background:new    ;}
	.st3{fill:#FFFFFF;}
</style>
<rect y="0" class="st0" width="841.9" height="595.3"/>
<path class="st1" d="M611.6,196.9c0.8,1.1,0.2-2.3,1.8-1.5c-3.4,15.2-6.2,31-12.9,42.8c-7.8,0.1-12.9-3.4-19.2-5.5
	c-13.4-4.5-28.2-6.6-41.7-11.4c-7.5-2.9-15.1-5.3-22.9-7.4c-4.3-1.1-8.8-1.1-12.5-2.6c-1-0.4-1.6-1.4-2.6-1.9
	c-4.6-2-8.6-3.5-12.6-6.3c-1.1-0.8-2.7-1.2-3.3-1.8c-2.3-2.3-2.9-6.1-4.1-9.2c-1.6-4.8-4.4-9.1-8.1-12.6c-9.3-0.9-18.1,2.9-28.1,3.7
	c-13.1,1.1-26.6-1.1-39.9,0c-7.8,0.7-15.6,2-23.3,3.7c-3.6,3.7-12.5,2-17,4.8c-7.5,0.6-15,0.6-22.5,0c-1.8-2.4-1.6-6.8-3.3-9.2
	c0.4-10.2-5.6-14.1-5.9-23.6c-3.4,0.8-3.6,4.8-5.5,7c-0.2,9.8-2.2,18.6-4.1,26.6c-1,4.3-3.2,8.3-6.3,10.3c-1.4-0.4-2.9-0.7-4.4-0.7
	c-2.6-4.7-3.1-11.4-4.4-17.4c-6.5-6-8.3-18.3-25.1-14.8c-0.4-1.3,1.5-0.5,2.2-0.7c-0.2-0.9-2.3,0.1-2.6-0.7c1.1-0.9,3.8-0.1,5.5-0.4
	c-1.1-0.9-3.8-0.1-5.5-0.4c-2.2,3.7-4.9,8.4-4.8,13.3c0,2,1.5,3.7,1.5,5.5c0,5.4-4,9.1-6.3,12.9c-1.2,9.4-4.9,12.3-14,14.8
	c-2.2,0.6-4.6,0.7-6.6,1.1s-4,1.6-5.5,1.9c-2.6,0.5-5.1,0-7.4,0.7c-2,0.6-3.4,2.9-5.5,1.5c-0.5-1.8,1.5-0.9,2.6-1.1
	c0-1.1-2.5,0.3-2.6-0.8c1.8-2.5,7.3-2.5,10.7-4.4c-4,0.2-8.6,3.3-13.7,1.9c2.5-0.7-0.2-2.3,3.3-2.2c0.2-1.6-2-0.7-2.6-1.5
	c-0.2-1.5,2-0.4,2.9-0.8c-0.2-1.1-2.8,0.3-2.9-0.7c9.6-5.8,19.1-2.4,27-7.8c1.9-1.4,3.5-3.2,4.8-5.2c0.3-0.6,0-1.6,0.4-2.2
	c1.8-2.7,3.5-4.4,4.8-7.4c1.2-2.7,2.7-5.5,3.7-8.5c2-6,3.1-12.9,5.9-18.1c1.5-2.8,5.9-8,8.9-8.9c1.6-0.5,8.5-1,11.1-0.4
	c4.2,1.1,7,8.7,8.5,13.3c2.1,6.4,3,12.5,5.5,18.8c1.9-7.1,5.8-12.2,8.1-19.6c2.5-8,4.6-14.4,8.9-19.6c9-3.2,11,3.7,13.3,12.2
	c1.2,4.4,1,13.7-0.4,17c16.3,8.8,37.9,0.5,59.1-1.1c11.5-0.9,23.4,0.8,34.7,0c7.8-0.5,18.3-3,26.6-3.7c7.6-0.6,12.5,0.6,15.5,5.9
	c2.5,4.5,2.9,11.2,7.4,14.4c13.4,9.4,32,13.1,50.2,19.6c18.5,6.6,37.4,9.8,53.5,16.2c11.2-7.9,14.8-23.3,21-36.2
	C612.2,191.1,613.4,194.2,611.6,196.9z"/>
<g class="st2">
	<path class="st3" d="M342.1,427.1l-1.4,7h-37v-61.6h35.8l1.5,6.1h-0.2c-8.5-1.2-16.9-4.6-24.4-4.6h-5.8v27.2h16.6v1.5h-16.6v29.8
		h5.8c7.4,0,17.1-4.3,25.5-5.5L342.1,427.1L342.1,427.1z"/>
	<path class="st3" d="M384.2,404.8v29.6h-7.2v-28.9c0-3.7,2.3-14.6-9.4-14.6c-5.5,0-9.6,2.6-14.8,7.5v36h-7.1v-43.3l6.8-1.7h0.3v7.4
		c5.5-5.1,10.8-7.7,17.5-7.7C379.5,389,384.2,394,384.2,404.8z"/>
	<path class="st3" d="M428.6,390.6l-10.8,2.1c0.7,0.5,1.4,1.1,2,1.7c3.1,3.1,4.8,7.2,4.8,11.6c0,4.4-1.7,8.5-4.8,11.6
		c-3.1,3.1-7.2,4.8-11.6,4.8c-3.9,0-7.5-1.3-10.4-3.7l-0.7,0.4c-2.3,1.5-3.5,3.8-3.5,5.2c-0.1,2.5,0.7,5.6,8.3,5.9l11.1,0.6
		c8.6,0.5,13.9,1.1,13.9,7.9c0,8.1-9,15.4-21.5,15.4c-10.8,0-17.9-5.2-17.9-12.8c0-2,0.5-4.3,1.7-6.7l6.4-0.7h0.3
		c-1,2.4-1.5,4.8-1.5,6.9c0,7,1.9,12.5,11.1,12.5c10.7,0,14.3-6.2,14.3-13.9c0-4.9-3.8-7.5-7.1-7.5l-12.2-0.8
		c-4.9-0.3-12.2-0.8-12.2-5.4c0-2.9,4.9-5.5,8.3-7.5l0.4-0.2c-0.2-0.1-0.3-0.3-0.5-0.4c-6.4-6.4-6.4-16.8,0-23.2
		c5.6-5.5,14.1-6.3,20.5-2.2l11.5-9.4L428.6,390.6z M418.8,416.5c2.3-2.3,2.3-4.4,2.3-6.9v-0.3c0-3.8-1.8-7.9-4.5-10.6
		c-3.4-3.4-7.6-5.4-11.2-5.4c0,0,0,0-0.1,0c-0.9,0-5.3,0.1-7.5,2.3c-6.1,6.1,1,14.5,4.4,17.8c3.1,3.1,6.1,5.1,8.7,5.7
		C413.8,419.7,416.4,418.9,418.8,416.5z M428.6,382.8L428.6,382.8L428.6,382.8L428.6,382.8z"/>
	<path class="st3" d="M439.8,365.8v68.5h-7.2v-66.8l6.9-1.7H439.8z"/>
	<path class="st3" d="M447.5,381.8c-1.6-1.6-1.6-4.3,0-5.9c1.6-1.6,4.3-1.6,5.9,0c1.6,1.6,1.6,4.3,0,5.9
		C451.8,383.5,449.2,383.5,447.5,381.8z M453.7,389.4h0.3v45h-7.2v-43.3L453.7,389.4z"/>
	<path class="st3" d="M490.1,423.2c0,7.5-6.5,12.2-15.8,12.2c-4.8,0-10.3-1.3-15.2-4.6l2.9-7c3.6,3.6,6.4,10.9,12.6,10.9
		c7,0,11.7-3,11.9-8.7c0.2-4.4-6.2-7-11.5-9.4l-3.4-1.5c-6-2.7-11.5-8.3-11.5-15.4c0-6.8,6.1-10.7,14-10.7c5.3,0,10.7,1.6,14.3,3.7
		l-4,8.9c-3-2.5-5.2-12.1-10.7-12.1c-6.5,0-10.1,4.5-10.1,8.9c0,5.6,6.2,8,10.7,10l3.4,1.5C483.3,412.5,490.1,415.6,490.1,423.2z"/>
	<path class="st3" d="M533.7,404.8v29.6h-7.2v-28.9c0-3.7,1.1-15.4-10.5-14.7c-5.6,0.3-8.5,2.7-13.7,7.6v36H495v-66.8l6.9-1.7h0.3
		v30.9c5.5-5.1,10.8-7.7,17.5-7.7C529,389,533.7,394,533.7,404.8z"/>
</g>
</svg>
