<?xml version="1.0" standalone="no"?>
<!DOCTYPE svg PUBLIC "-//W3C//DTD SVG 1.1//EN" "http://www.w3.org/Graphics/SVG/1.1/DTD/svg11.dtd" >
<svg xmlns="http://www.w3.org/2000/svg" xmlns:xlink="http://www.w3.org/1999/xlink" version="1.1">
<metadata>
Created by FontForge 20170731 at Sun Aug 22 18:21:41 2021
 By Aleksey,,,
</metadata>
<defs>
<font id="ClassicoBold" horiz-adv-x="1015" >
  <font-face 
    font-family="Classico"
    font-weight="700"
    font-stretch="normal"
    units-per-em="2048"
    panose-1="0 0 0 0 0 0 0 0 0 0"
    ascent="1638"
    descent="-410"
    x-height="1026"
    cap-height="1432"
    bbox="-389 -465 1787 1887"
    underline-thickness="102"
    underline-position="-307"
    unicode-range="U+000A-20AC"
  />
<missing-glyph horiz-adv-x="1079" 
d="M102 1434h875v-1434h-875v1434zM160 1393l379 -633l381 633h-760zM514 717l-369 614v-1231zM541 674l-379 -631h758zM565 717l371 -621v1239z" />
    <glyph glyph-name=".notdef" horiz-adv-x="1079" 
d="M102 1434h875v-1434h-875v1434zM160 1393l379 -633l381 633h-760zM514 717l-369 614v-1231zM541 674l-379 -631h758zM565 717l371 -621v1239z" />
    <glyph glyph-name=".null" horiz-adv-x="0" 
 />
    <glyph glyph-name=".null" horiz-adv-x="0" 
 />
    <glyph glyph-name="nonmarkingreturn" horiz-adv-x="682" 
 />
    <glyph glyph-name="controlLF" unicode="&#xa;" horiz-adv-x="0" 
 />
    <glyph glyph-name="controlCR" unicode="&#xd;" horiz-adv-x="0" 
 />
    <glyph glyph-name="space" unicode=" " horiz-adv-x="442" 
 />
    <glyph glyph-name="exclam" unicode="!" horiz-adv-x="385" 
d="M159 130q20 20 49 20t49 -20t20 -49t-20 -49t-49 -20t-49 20t-20 49t20 49zM222 399h-28l-128 1049h245z" />
    <glyph glyph-name="numbersign" unicode="#" horiz-adv-x="1081" 
d="M1035 941h-212l-56 -411h192v-82h-205l-60 -448h-86l60 448h-335l-60 -448h-86l60 448h-200v82h213l56 411h-193v82h205l61 448h86l-61 -448h335l61 448h86l-61 -448h200v-82zM346 530h335l56 411h-335z" />
    <glyph glyph-name="dollar" unicode="$" horiz-adv-x="1017" 
d="M594 796q71 -35 113 -57.5t95 -61t81.5 -76t48.5 -92.5t20 -120q0 -93 -37.5 -168.5t-101 -123t-143.5 -73t-168 -25.5q-29 0 -43 2l-16 -176h-39l16 180q-98 12 -195 46.5t-166 82.5l85 176q20 -23 58 -75.5t65.5 -87t70 -68t86.5 -41.5l62 593l-35 18
q-65 31 -127.5 79.5t-115 110t-85 138t-32.5 152.5q0 150 115.5 246.5t299.5 96.5q33 0 49 -2l15 176h40l-16 -180q173 -24 302 -104l-57 -172q-23 21 -66.5 82t-88 105t-94.5 54l-55 -605zM185 1170q0 -49 18.5 -92.5t44 -74t71.5 -62t82.5 -51t94.5 -47.5l55 594
q-30 3 -61 3q-139 0 -222 -78.5t-83 -191.5zM514 31q324 0 348 263q3 35 -3 65.5t-18 53.5t-33.5 44.5t-41.5 36t-51 31t-54 27t-57.5 25.5t-54.5 25l-25 11l-61 -581q9 -1 51 -1z" />
    <glyph glyph-name="percent" unicode="%" horiz-adv-x="1544" 
d="M1502 339q8 -137 -95 -240q-95 -95 -222 -95h-14q-135 6 -249 120q-115 115 -123 252t94 239t237 97q134 -6 249 -121t123 -252zM991 204q100 -100 202.5 -116.5t174.5 55.5q73 73 57.5 170t-115.5 198q-120 120 -237 120q-82 0 -141 -60q-70 -70 -56 -166
q16 -102 115 -201zM1170 1466h86l-883 -1461h-85zM425 759q-3 0 -7 0.5t-6 0.5q-135 6 -249 120q-116 116 -124 252t96 240q101 101 236.5 94t247.5 -119q115 -115 123 -252t-94 -239q-97 -97 -223 -97zM344 1385q-99 15 -171 -57q-71 -71 -57 -167q14 -99 116 -201
q103 -103 206 -118q100 -14 172 58q70 70 56 166q-15 100 -116 201q-103 103 -206 118z" />
    <glyph glyph-name="ampersand" unicode="&#x26;" horiz-adv-x="1525" 
d="M1068 394l411 -390l-214 -1q-12 0 -17 1q-8 1 -20 12l-255 245q-40 -54 -88 -99q-55 -52 -121 -91q-67 -40 -143 -62q-75 -22 -165 -22q-73 0 -145 24q-71 24 -129 71q-57 48 -93 117t-36 161q0 77 29 149q28 67 81 128q51 57 119 101q60 39 129 63q-37 41 -61 71
q-33 42 -53 81q-23 42 -33 85q-11 46 -11 93q0 68 26 128q26 59 72 101t110 66q63 24 141 24q61 0 117 -22q56 -23 101 -60q47 -40 72 -88q28 -53 28 -107v-11h-18q-10 0 -16 5q-8 6 -11 20q-1 25 -20 64q-15 35 -51 72q-33 35 -84 60q-51 28 -150 28h-1q-32 0 -56.5 -8
t-40.5 -24.5t-23 -27t-16 -27.5q-3 -8 -6 -12l-4 -5q-22 -52 -22 -112q0 -89 49 -173q48 -84 148 -178l437 -419q39 59 58 113q29 81 38 152q3 14 5 16q6 10 21 10h20l-1 -12q-3 -79 -34 -169q-23 -66 -74 -141zM456 30q83 0 155 21t135 58q59 34 112 86q48 47 84 96
l-498 477q-68 -22 -133 -63q-64 -40 -111 -95q-44 -50 -73 -117q-26 -64 -26 -133q0 -84 33 -146q32 -60 86 -103q55 -42 115 -61q66 -20 121 -20z" />
    <glyph glyph-name="parenleft" unicode="(" horiz-adv-x="425" 
d="M203 630q0 -288 61.5 -518t179.5 -386l11 -15l-54 -37l-10 13q-309 392 -309 931q0 272 78.5 513t230.5 434l10 13l54 -38l-11 -14q-241 -318 -241 -896z" />
    <glyph glyph-name="parenright" unicode=")" horiz-adv-x="425" 
d="M33 1565q309 -392 309 -931q0 -272 -79 -513.5t-230 -433.5l-10 -13l-54 37l11 15q242 319 242 896q0 585 -242 904l-11 14l54 38z" />
    <glyph glyph-name="asterisk" unicode="*" horiz-adv-x="903" 
d="M855 1145l-5 -143l-350 56l203 -291l-128 -67l-125 332l-150 -322l-123 77l225 275l-353 -31l4 143l351 -56l-203 291l127 67l126 -332l150 322l123 -77l-225 -275z" />
    <glyph glyph-name="plus" unicode="+" horiz-adv-x="892" 
d="M484 772h378v-73h-378v-392h-77v392h-378v73h378v392h77v-392z" />
    <glyph glyph-name="comma" unicode="," horiz-adv-x="272" 
d="M160 166q78 -67 78 -169q0 -79 -48 -151t-131 -117l-14 -7l-29 41l15 10q94 64 94 146q0 69 -66 130q-25 23 -25 56q0 34 22 56q21 21 51.5 22.5t52.5 -17.5z" />
    <glyph glyph-name="hyphen" unicode="-" horiz-adv-x="505" 
d="M480 516h-455v94h455v-94z" />
    <glyph glyph-name="period" unicode="." horiz-adv-x="247" 
d="M191 136q23 -22 23 -54t-23 -55l-13 -13q-23 -23 -55 -23t-55 23l-13 13q-23 23 -23 55t23 54l13 13q22 23 55 23t55 -23z" />
    <glyph glyph-name="slash" unicode="/" horiz-adv-x="747" 
d="M625 1571h85l-583 -1691h-86z" />
    <glyph glyph-name="zero" unicode="0" horiz-adv-x="1214" 
d="M608 1449q236 0 382.5 -197t146.5 -531q0 -220 -65 -389t-186.5 -262.5t-280.5 -93.5q-236 0 -382.5 197.5t-146.5 531.5q0 220 65 388.5t186.5 262t280.5 93.5zM613 -7q356 0 356 732q0 165 -19 290t-60.5 220.5t-113.5 145.5t-173 50q-80 0 -141.5 -34.5t-101 -95.5
t-65 -151.5t-35.5 -193.5t-10 -231q0 -732 363 -732z" />
    <glyph glyph-name="one" unicode="1" horiz-adv-x="544" 
d="M433 1449h8v-1449h-160v1245q-104 -72 -261 -129v24q122 57 239 136.5t174 172.5z" />
    <glyph glyph-name="two" unicode="2" horiz-adv-x="1024" 
d="M295 74q112 0 224 21t225.5 50t184.5 39l-54 -184h-840v8l113 117q173 179 290.5 323.5t180.5 255.5t88.5 194.5t25.5 163.5q0 141 -78.5 230t-215.5 89q-115 0 -210 -62t-171 -211l-25 12q16 36 47 79.5t82 95t110.5 93t139 69t160.5 27.5q172 0 280 -102t108 -272
q0 -151 -186 -378.5t-612 -626.5l-32 -29z" />
    <glyph glyph-name="three" unicode="3" horiz-adv-x="1021" 
d="M515 787q71 -14 146 -47t141.5 -80.5t109 -114.5t42.5 -138q0 -80 -34 -150.5t-91 -120.5t-130.5 -86.5t-153 -54.5t-157.5 -18q-181 0 -349 93l54 140q24 -22 62 -61t61 -60.5t55.5 -46t66.5 -35.5t72 -11q73 0 140.5 35t113.5 97.5t64 148.5t-7 187q-14 59 -54 109
t-89 79.5t-95 47t-82 19.5l-80 6l-8 21l82 26q66 21 115 45.5t91 61.5t63.5 90t21.5 120q0 123 -77.5 207.5t-187.5 84.5q-118 0 -203.5 -54.5t-133.5 -126.5l-25 12q57 91 201 164t293 73q147 0 247.5 -78.5t100.5 -217.5q0 -47 -27 -95.5t-67.5 -87t-94.5 -74.5
t-101.5 -60.5t-95.5 -44.5v-4z" />
    <glyph glyph-name="four" unicode="4" horiz-adv-x="1142" 
d="M1115 501l-20 -123h-211v-378h-165v378h-658v53l749 1010h74v-940h231zM719 501l10 752h-24l-556 -752h570z" />
    <glyph glyph-name="five" unicode="5" horiz-adv-x="923" 
d="M231 920q307 0 466 -129t159 -348q0 -134 -65.5 -239t-173.5 -160.5t-237 -55.5q-170 0 -337 88l68 142q23 -22 56 -57.5t53.5 -56t49 -43t59.5 -33t67 -10.5q287 0 287 392q0 479 -466 479h-74l43 548h634l-32 -167h-578l-30 -350h51z" />
    <glyph glyph-name="six" unicode="6" horiz-adv-x="1007" 
d="M551 850q174 0 288 -118t114 -307q0 -198 -125.5 -323t-311.5 -125q-200 0 -324 150.5t-124 418.5q0 315 175.5 558.5t478.5 344.5l9 -29q-126 -44 -219.5 -127.5t-150 -198t-83.5 -250.5t-27 -297q0 -133 13.5 -229t45 -168.5t87 -109t135.5 -36.5q142 0 205 138t48 396
q-4 68 -26 121t-52 84t-67 51t-69.5 26t-60.5 3q-66 -6 -114 -29t-107 -71l-20 23q121 104 282 104z" />
    <glyph glyph-name="seven" unicode="7" horiz-adv-x="1038" 
d="M128 1426h851v-8l-530 -1418h-110l548 1242l-236 -1q-394 0 -596 -47z" />
    <glyph glyph-name="eight" unicode="8" horiz-adv-x="1140" 
d="M665 760q408 -170 408 -399q0 -104 -74.5 -194t-193.5 -140.5t-250 -50.5q-85 0 -170 22t-157 62t-117 104.5t-45 141.5q0 99 56.5 186.5t143 145.5t195.5 96q-68 33 -120.5 66.5t-104 79t-80 101.5t-28.5 117q0 92 62 173t167 129.5t225 48.5q104 0 203 -43.5
t162.5 -119.5t63.5 -161q0 -57 -23.5 -108t-56.5 -87.5t-84 -71t-91 -55t-93 -43.5h2zM581 4q148 0 246 73.5t98 208.5q0 111 -81.5 215.5t-225.5 164.5l-98 41l-28 12q-145 -63 -202.5 -122.5t-61.5 -166.5t23.5 -190.5t78.5 -134t114.5 -76t136.5 -25.5zM283 1172
q0 -113 74.5 -214t209.5 -157l62 -27q76 43 121.5 89t73 122.5t27.5 186.5q0 125 -75.5 187.5t-206.5 62.5q-136 0 -211 -63.5t-75 -186.5z" />
    <glyph glyph-name="nine" unicode="9" horiz-adv-x="1079" 
d="M490 1449q79 0 154 -21.5t142.5 -66.5t118.5 -109t81 -155t30 -197q0 -204 -99 -393.5t-264.5 -326t-368.5 -204.5l-9 30q256 90 403 325.5t147 551.5q0 253 -94 396t-257 143q-287 0 -257 -513q4 -68 26 -123.5t53.5 -89.5t68.5 -56.5t70.5 -31t60.5 -5.5q66 6 114 29
t107 71l20 -24q-120 -103 -282 -103q-174 0 -288 118t-114 307q0 198 125.5 323t311.5 125z" />
    <glyph glyph-name="colon" unicode=":" horiz-adv-x="276" 
d="M83 844l-13 13q-22 23 -22 55t22 54l13 14q22 22 54.5 22t54.5 -22l13 -14q23 -22 23 -54t-23 -55l-13 -13q-23 -23 -55 -23q-31 0 -54 23zM205 136q23 -23 23 -55q0 -31 -23 -54l-13 -13q-23 -23 -55 -23q-31 0 -54 23l-13 13q-22 23 -22 55t22 54l13 13q22 22 54.5 22
t54.5 -22z" />
    <glyph glyph-name="semicolon" unicode=";" horiz-adv-x="303" 
d="M83 844l-13 13q-23 23 -23 55q0 31 23 54l13 14q22 22 54.5 22t54.5 -22l13 -14q23 -22 23 -54t-23 -55l-13 -13q-23 -23 -54 -23q-32 0 -55 23zM178 166q79 -67 79 -169q0 -79 -48.5 -151t-131.5 -117l-13 -7l-29 41l14 10q95 65 95 146q0 68 -67 130q-25 23 -25 56
t23 56q21 21 51 22.5t52 -17.5z" />
    <glyph glyph-name="less" unicode="&#x3c;" horiz-adv-x="913" 
d="M873 1080l-726 -345l726 -344l-36 -66l-804 382v57l804 382z" />
    <glyph glyph-name="equal" unicode="=" horiz-adv-x="901" 
d="M867 558h-834v73h834v-73zM867 840h-834v73h834v-73z" />
    <glyph glyph-name="greater" unicode="&#x3e;" horiz-adv-x="913" 
d="M75 1146l804 -382v-57l-804 -382l-36 66l726 344l-726 345z" />
    <glyph glyph-name="question" unicode="?" horiz-adv-x="929" 
d="M496 1489q170 0 277.5 -91t107.5 -234q0 -50 -17.5 -100.5t-39 -87t-65 -84.5t-69.5 -72.5t-78 -71.5q-45 -41 -67 -62.5t-52.5 -55t-43.5 -61t-14 -53.5l-1 -17h-94l-2 16q-1 4 -1 13q0 46 26 95.5t53.5 80.5t81.5 86q40 41 60.5 62.5t52.5 62t48 72.5t28.5 75.5
t12.5 88.5q0 26 -3 52t-17.5 67t-39 71t-72 52t-111.5 22q-191 0 -345 -189l-10 -13l-53 36l12 15q23 28 41.5 48t62 56.5t86.5 60t109 42t136 18.5zM459 143q25 -25 25 -61t-25 -62q-25 -25 -61 -25t-61 25q-25 26 -25 62t25 61t61 25t61 -25z" />
    <glyph glyph-name="at" unicode="@" horiz-adv-x="1763" 
d="M1322 1078l-104 -498q-15 -74 -15 -117q0 -59 23 -84.5t75 -25.5q117 0 202.5 131t85.5 310q0 175 -85.5 318t-236 224t-334.5 81q-155 0 -293.5 -61t-238 -165t-157.5 -248.5t-58 -306.5q0 -213 93.5 -383t260.5 -266t375 -96q267 0 468 150l18 13l49 -59l-20 -14
q-224 -167 -523 -167q-179 0 -335 61t-266 168t-173 258t-63 325q0 180 68 341t184 276.5t277.5 183.5t341.5 68q159 0 300 -53.5t241 -146t158 -222.5t58 -277q0 -223 -120 -372.5t-299 -149.5q-162 0 -198 118q-130 -138 -291 -138q-121 0 -193.5 84t-72.5 225
q0 139 63.5 260t171.5 192t233 71q132 0 218 -78l61 70h51zM831 344q65 0 129.5 41.5t110.5 114.5q5 54 16 94l66 325q-59 89 -171 89q-83 0 -156.5 -59.5t-117.5 -159t-44 -212.5q0 -109 44.5 -171t122.5 -62z" />
    <glyph glyph-name="A" unicode="A" horiz-adv-x="1247" 
d="M690 1453l562 -1449h-232l-182 474h-613q-28 -74 -34.5 -92t-15 -39t-15.5 -37t-40 -97.5t-84 -208.5h-42q76 182 245 621l321 828h130zM230 495h601l-301 776l-254 -658z" />
    <glyph glyph-name="B" unicode="B" horiz-adv-x="1189" 
d="M756 752q165 -12 278.5 -110.5t113.5 -247.5q0 -181 -154 -285.5t-434 -104.5h-458v1426h478q237 0 355.5 -92t118.5 -251q0 -127 -88.5 -214.5t-209.5 -116.5v-4zM270 1417v-663h327q79 0 131.5 22.5t79 67t36.5 96.5t10 126q0 60 -5 105t-23 94t-48.5 80t-85.5 51.5
t-130 20.5h-292zM539 22q101 0 173.5 15.5t117 42.5t70.5 71t35 92.5t9 115.5q0 84 -14 146.5t-47.5 113.5t-95.5 77.5t-151 26.5h-366v-688q58 -13 269 -13z" />
    <glyph glyph-name="C" unicode="C" horiz-adv-x="1329" 
d="M1302 246l11 -9q-11 -13 -35 -37q-139 -139 -325.5 -188.5t-373.5 0t-326 188.5t-188.5 326t0 373.5t188.5 325.5t326 188.5t373.5 0t325.5 -188.5q17 -17 25 -26l-133 -126q-4 4 -12 12.5t-12 12.5q-140 140 -297 208t-312.5 47.5t-273.5 -138.5q-117 -117 -135.5 -278
t52.5 -323t211 -302t296 -204.5t310 -40t272 142.5q23 23 33 36z" />
    <glyph glyph-name="D" unicode="D" horiz-adv-x="1417" 
d="M656 1430q331 0 522 -182.5t191 -513.5q0 -228 -90 -393.5t-253 -251t-381 -85.5h-543v1426h554zM654 20q110 0 194 31.5t141 89t93 145.5t52 195t16 242q0 155 -29 278.5t-89.5 216.5t-160.5 143.5t-234 50.5h-349v-1359q173 -33 366 -33z" />
    <glyph glyph-name="E" unicode="E" horiz-adv-x="1003" 
d="M993 169l-33 -162h-858v1426h828l36 -143h-4q-74 10 -270.5 59t-293.5 49h-133v-631h384v-35h-384v-690h133q95 0 303 58t288 69h4z" />
    <glyph glyph-name="F" unicode="F" horiz-adv-x="907" 
d="M267 1398v-655h365v-35h-365v-701h-165v1426h792l25 -136h-4q-71 10 -264 55.5t-290 45.5h-94z" />
    <glyph glyph-name="G" unicode="G" horiz-adv-x="1378" 
d="M1211 656l102 10v-659h-102v129q-140 -110 -314 -141.5t-345 21t-299 180.5q-139 139 -188.5 326t0 373.5t188.5 325.5t326 188.5t374 0t326 -188.5q8 -8 24 -26l-127 -123l-24 24q-140 140 -298.5 207.5t-315.5 46.5t-275 -139q-88 -88 -121 -201.5t-11 -231t88 -236
t171 -223.5q130 -130 271.5 -198t285.5 -61.5t264 96.5v500z" />
    <glyph glyph-name="H" unicode="H" horiz-adv-x="1275" 
d="M1004 1430h168v-1426h-168v725h-733v-725h-169v1426h169v-666h733v666z" />
    <glyph glyph-name="I" unicode="I" horiz-adv-x="372" 
d="M270 4l-168 2v1426l168 -2v-1426z" />
    <glyph glyph-name="J" unicode="J" horiz-adv-x="362" 
d="M102 1430h162v-979q0 -121 -7.5 -209.5t-27.5 -160t-46 -121t-72.5 -95t-97 -79t-129.5 -76.5l-31 64q28 8 76 19q86 21 112 39q41 29 52 115q10 73 9 374v114v995z" />
    <glyph glyph-name="K" unicode="K" horiz-adv-x="1302" 
d="M270 4h-168v1426h168v-1426zM438 837l881 -830h-285l-743 729l284 266q59 56 145 135.5t132.5 122.5t96 91.5t77.5 79.5l33 -1v-4q-92 -83 -255 -241t-228 -219z" />
    <glyph glyph-name="L" unicode="L" horiz-adv-x="937" 
d="M947 164l-33 -160h-812v1426h159v-1416h47q61 0 300 67.5t335 82.5h4z" />
    <glyph glyph-name="M" unicode="M" horiz-adv-x="1615" 
d="M1429 1432l133 -1426l-170 -2l-124 1324l-501 -1234h-8l-546 1240l-143 -1327h-21l146 1364l-23 53v6h187l479 -1099l446 1099z" />
    <glyph glyph-name="N" unicode="N" horiz-adv-x="1148" 
d="M1020 1440h26v-1459h-12l-895 1316v-1290h-21v1325l-63 92v6h212l753 -1109v1119z" />
    <glyph glyph-name="O" unicode="O" horiz-adv-x="1531" 
d="M1278 1237q139 -139 188.5 -326t0 -374t-188.5 -326t-325.5 -188.5t-373.5 0t-326 188.5t-188.5 326t0 373.5t188.5 325.5t325.5 189t373.5 0.5t326 -188.5zM1269 221q88 88 118 199t3.5 225.5t-95 229t-174.5 220.5q-142 142 -291.5 212.5t-299.5 53.5t-267 -134
q-88 -88 -117 -204.5t-2 -237t97 -241t175 -225.5q140 -140 290 -203t297.5 -38t265.5 143z" />
    <glyph glyph-name="P" unicode="P" horiz-adv-x="1101" 
d="M527 1431q272 0 412 -98.5t140 -287.5q0 -200 -149.5 -319.5t-402.5 -119.5q-175 0 -257 12v-613h-168v1425zM523 624q106 0 180 30t114.5 88t57.5 129.5t17 166.5q0 72 -9 126t-33 103t-64 80t-105 49t-154 18h-257v-776q27 -6 112 -10t141 -4z" />
    <glyph glyph-name="Q" unicode="Q" horiz-adv-x="1568" 
d="M1326 265l209 -258h-149l-117 196q-105 -101 -239.5 -153t-270 -51t-269.5 55.5t-237 157.5q-139 139 -188.5 326t0 373.5t188.5 325.5t326 188.5t373.5 0t325.5 -188.5q131 -131 182.5 -304.5t16.5 -350t-151 -317.5zM1041 616l275 -339q68 90 86 199t-12 219t-96 219
t-164 207q-140 140 -293.5 205.5t-304.5 42t-269 -141.5q-117 -117 -128.5 -275t64.5 -315t218 -299q140 -140 286.5 -207t293 -48.5t264.5 132.5l-241 401h21z" />
    <glyph glyph-name="R" unicode="R" horiz-adv-x="1132" 
d="M599 653l523 -646h-155l-386 641l1 1l-1 -1l-74 -4h-237v-640h-168v1426h378q267 0 410.5 -92.5t139.5 -274.5q-2 -83 -35 -152.5t-80 -112t-108.5 -75t-110.5 -47.5t-97 -23zM525 676q87 0 151 31.5t100 87t53 122.5t17 147q0 84 -16.5 145.5t-56.5 110t-113 73
t-180 24.5h-210v-728q66 -13 255 -13z" />
    <glyph glyph-name="S" unicode="S" horiz-adv-x="964" 
d="M566 778q50 -24 81.5 -40.5t73.5 -42t68 -47t54.5 -52.5t44 -63.5t26 -74t10.5 -88.5q0 -93 -37.5 -168.5t-101 -123t-143.5 -72.5t-168 -25q-110 0 -228 31t-209 78l89 192q27 -25 75 -84t84.5 -101t90 -76.5t104.5 -34.5q148 0 251 95.5t103 231.5q0 42 -10 76.5
t-30.5 61t-42.5 46.5t-57 38.5t-61 30.5t-67.5 30t-65.5 29l-98 47q-67 32 -124.5 73.5t-107.5 95.5t-79 123.5t-29 145.5q0 150 115.5 246.5t299.5 96.5q104 0 208.5 -31t181.5 -78l-109 -208q-27 25 -62.5 83t-62.5 105t-72.5 85t-97.5 38q-138 0 -222.5 -86.5
t-84.5 -201.5q0 -52 18 -96t42.5 -74.5t71 -63t82.5 -51.5t98 -49z" />
    <glyph glyph-name="T" unicode="T" horiz-adv-x="1081" 
d="M1063 1430l27 -157h-4q-65 11 -142.5 48.5t-144 68t-116.5 30.5h-59v-1416h-168v1414h-59q-50 0 -116.5 -32.5t-144 -71.5t-142.5 -50h-4l27 166h1046z" />
    <glyph glyph-name="U" unicode="U" horiz-adv-x="1142" 
d="M1024 1433h28v-955q0 -242 -121 -369.5t-359 -127.5q-236 0 -359 125t-123 362v962h168v-952q0 -115 15.5 -194t54 -138t106.5 -87t169 -28q197 0 309 115.5t112 329.5v957z" />
    <glyph glyph-name="V" unicode="V" horiz-adv-x="1042" 
d="M1016 1430h28l-480 -1449h-8l-562 1449h187l448 -1196z" />
    <glyph glyph-name="W" unicode="W" horiz-adv-x="1773" 
d="M1732 1430h41l-449 -1449h-8l-411 1243l-417 -1243h-8l-482 1449h202l367 -1156l375 1156h102l364 -1095z" />
    <glyph glyph-name="X" unicode="X" horiz-adv-x="1339" 
d="M723 784l630 -777h-255l-500 633l-405 -633h-28l420 649l-601 774h238l487 -631l425 631h21z" />
    <glyph glyph-name="Y" unicode="Y" horiz-adv-x="1093" 
d="M1109 1430q-145 -242 -341 -582l-119 -206v-638l-164 3v635l-501 788h219l437 -767l106 182l336 585h27z" />
    <glyph glyph-name="Z" unicode="Z" horiz-adv-x="1112" 
d="M1102 186l-43 -182h-1045v8l856 1408h-50q-97 0 -224 -25.5t-227 -57t-204.5 -63.5t-148.5 -40h-4l65 196h1005v-8l-855 -1407h186q96 0 202 23t182 52t162 58.5t140 37.5h3z" />
    <glyph glyph-name="bracketleft" unicode="[" horiz-adv-x="323" 
d="M490 1571v-58h-304q37 -447 37 -887q0 -441 -37 -888h304v-58h-388v1891h388z" />
    <glyph glyph-name="backslash" unicode="\" horiz-adv-x="747" 
d="M125 1560l579 -1680h-85l-4 12l-580 1679h86z" />
    <glyph glyph-name="bracketright" unicode="]" horiz-adv-x="323" 
d="M-168 1571h387v-1891h-387v58h304q-38 459 -38 888q0 428 38 887h-304v58z" />
    <glyph glyph-name="asciicircum" unicode="^" horiz-adv-x="782" 
d="M405 1489l347 -621h-86l-275 494l-275 -494h-85l346 621h28z" />
    <glyph glyph-name="underscore" unicode="_" horiz-adv-x="0" 
d="M390 -163h-779v78h779v-78z" />
    <glyph glyph-name="grave" unicode="`" horiz-adv-x="319" 
d="M113 1552l172 -338l-39 -28l-332 366h199z" />
    <glyph glyph-name="a" unicode="a" 
d="M965 29q11 0 35 4v-12q-59 -35 -112 -35q-68 0 -132 52.5t-67 96.5q-80 -74 -183.5 -114.5t-200.5 -40.5q-120 0 -195 61.5t-75 169.5q0 136 121 217.5t329 105.5q100 12 204 18v117q0 166 -65.5 247.5t-200.5 81.5q-155 0 -298 -123l-18 21q77 70 201 108.5t238 38.5
q160 0 240.5 -89t80.5 -275v-501q0 -36 1 -52.5t5.5 -39.5t14.5 -32.5t29 -17t48 -7.5zM689 172v332q-83 1 -161.5 0.5t-147 -14t-118.5 -36.5t-77 -66.5t-23 -104.5q8 -111 69.5 -166.5t160.5 -55.5q91 0 160.5 23t136.5 88z" />
    <glyph glyph-name="b" unicode="b" horiz-adv-x="1116" 
d="M624 1050q192 0 316.5 -147.5t124.5 -375.5q0 -122 -39.5 -226t-106 -174.5t-155 -110t-185.5 -39.5t-185 39.5t-154 112.5l-140 -140h-8v1547l164 50h8v-701q159 165 360 165zM577 8q155 0 233 134.5t78 372.5q0 232 -71 360t-218 128q-87 0 -177 -44.5t-158 -122.5
v-632q47 -91 130.5 -143.5t182.5 -52.5z" />
    <glyph glyph-name="c" unicode="c" horiz-adv-x="1021" 
d="M968 205l25 -23l-7 -8q-16 -18 -26 -28q-76 -76 -174 -116.5t-205 -40.5t-205 40.5t-174 116.5t-116.5 174t-40.5 205t40.5 205t116.5 174t174 117t205 41t205 -41t174 -117q3 -3 9 -9.5t9 -9.5l8 -8l-130 -154q-68 124 -106 170q-85 104 -196 114q-200 18 -306 -88
q-127 -127 -111 -318q15 -190 164 -339q148 -148 340 -164q109 -9 174.5 3.5t121.5 68.5q13 12 23 26z" />
    <glyph glyph-name="d" unicode="d" horiz-adv-x="1134" 
d="M1032 179l43 -149l-172 -46l-49 161q-158 -168 -362 -168q-192 0 -316.5 146.5t-124.5 375.5q0 122 39.5 226t106 174.5t155 110.5t185.5 40q181 0 315 -128v625l172 46h8v-1414zM852 190v632q-47 91 -130.5 143.5t-182.5 52.5q-157 0 -238.5 -131.5t-81.5 -366.5
q0 -231 75.5 -364t222.5 -133q87 0 177 44.5t158 122.5z" />
    <glyph glyph-name="e" unicode="e" horiz-adv-x="1017" 
d="M957 198h36q-30 -38 -48 -56q-154 -154 -373 -154t-373 154q-101 101 -137 237t0 272t137 237q166 166 345 163h8h8q2 0 7 -0.5t7 -0.5l1 -1q153 -14 245 -121t102 -288q0 -5 0.5 -15.5t0.5 -16.5h-817q-4 -96 40.5 -182.5t135.5 -177.5q103 -99 219.5 -147.5
t229.5 -34.5t195 96q20 20 31 36zM218 869q-93 -93 -109 -229h639q0 2 -0.5 6.5t-0.5 6.5v2q0 1 -3 37q0 2 -0.5 4t-0.5 3q-8 62 -25.5 111.5t-39.5 78.5t-46.5 49.5t-48 28.5t-42.5 12t-31 3h-11q-168 0 -281 -113z" />
    <glyph glyph-name="f" unicode="f" horiz-adv-x="704" 
d="M594 1547q-125 0 -187.5 -81.5t-62.5 -251.5v-188h362l-32 -91l-329 46l-1 -981l-167 -4l1 981l-160 -16l-12 61h171v204q0 180 79 272t228 92q82 0 183 -16t162 -48l-11 -24q-110 45 -224 45z" />
    <glyph glyph-name="g" unicode="g" horiz-adv-x="983" 
d="M964 1193v-180l-250 -49q28 -21 47 -40q112 -112 112 -268q0 -157 -112 -269q-111 -111 -269 -111q-137 0 -241 86l-15 -10q-37 -25 -59 -59.5t-23 -60.5t5 -45.5t24 -41t59.5 -34.5t104.5 -15l258 -13q59 -4 94 -7t77.5 -10.5t65.5 -19.5t45 -31t31 -47.5t9 -67.5
q0 -145 -142.5 -251t-355.5 -106q-187 0 -301 82.5t-114 213.5q0 73 40 154l148 18h7q-35 -83 -35 -161q0 -66 10.5 -115t37.5 -90.5t79.5 -63t129.5 -21.5q90 0 156 25t103 70t54 101t17 126q0 80 -50 127t-113 47l-282 18q-32 2 -45.5 3t-46 4.5t-49 7.5t-43 10.5
t-40.5 15t-30 20.5t-22.5 28t-6.5 35q0 11 3.5 22t12 22t16 20t23 20.5t24.5 18.5t28.5 19t28 17.5t30 18t27.5 15.5l9 6q-4 3 -11 10q-111 111 -111 268.5t111 268.5q96 95 230.5 108.5t243.5 -57.5zM553 355q100 -24 182 58q24 24 36 53.5t14 49t2 56.5v8q0 65 -28 132
t-75 114q-59 59 -128 92.5t-132 33.5h-1q-19 0 -43.5 -2.5t-65.5 -15.5t-64 -36q-40 -40 -50 -89.5t2 -93t40.5 -91t54 -78t54.5 -59.5q111 -111 202 -132zM964 1193z" />
    <glyph glyph-name="h" unicode="h" horiz-adv-x="1073" 
d="M665 1050q323 0 323 -365v-685h-168v670q0 4 0.5 30t0.5 40t-2.5 43.5t-6.5 48t-12.5 46t-20.5 45t-30.5 37t-42.5 30t-57 16.5t-72 4q-91 -6 -155 -44t-162 -132v-834h-168v1547l160 39h8v-715q98 91 195 135t210 44z" />
    <glyph glyph-name="i" unicode="i" horiz-adv-x="350" 
d="M92 1003l158 39h8v-1042h-166v1003zM244 1216q-28 -28 -69 -28t-69 28t-28 68t28 69t69 29t69 -29t28 -69t-28 -68z" />
    <glyph glyph-name="j" unicode="j" horiz-adv-x="354" 
d="M91 1011l163 31h7v-1110q0 -165 -112.5 -277t-304.5 -112v42q117 20 182 113t65 241v1072zM247 1216q-29 -28 -69 -28t-68 28t-28 68t28 69t68 29t69 -29t29 -69t-29 -68z" />
    <glyph glyph-name="k" unicode="k" horiz-adv-x="1040" 
d="M252 1586h8v-1586h-168v1547zM416 609l633 -608h-245l-544 524l229 198q257 223 333 303h51v-4z" />
    <glyph glyph-name="l" unicode="l" horiz-adv-x="352" 
d="M252 1586h8v-1586h-168v1547z" />
    <glyph glyph-name="m" unicode="m" horiz-adv-x="1759" 
d="M1350 1050q323 0 323 -365v-685h-167v670q0 9 1 39t1.5 51t-3 54.5t-11 57.5t-24.5 51.5t-41 45t-62 29t-87 11.5q-91 0 -157 -42t-172 -148q13 -51 13 -134v-685h-165v670q0 27 -0.5 44t-4.5 52t-11.5 58.5t-23.5 53t-37.5 48t-56.5 31.5t-79 14q-100 2 -172.5 -26.5
t-157.5 -110.5v-834h-164v1003l156 39h8v-171q97 93 185 136t200 43q239 0 302 -196q104 101 197 148.5t210 47.5z" />
    <glyph glyph-name="n" unicode="n" horiz-adv-x="1071" 
d="M662 1050q323 0 323 -365v-685h-167v670q0 10 1.5 38.5t2.5 51t-2 55t-10 57t-22.5 51.5t-39 44.5t-61.5 29t-87 11.5q-91 0 -170 -42t-173 -132v-834h-165v1003l157 39h8v-171q98 91 195 135t210 44z" />
    <glyph glyph-name="o" unicode="o" horiz-adv-x="1165" 
d="M962 902q76 -76 116.5 -174t40.5 -206t-40.5 -206t-116.5 -174t-174 -116.5t-206 -40.5t-206 40.5t-174 116.5q-103 103 -139.5 241.5t0 277t139.5 241.5t241.5 139.5t277 0t241.5 -139.5zM943 161q57 57 71 135t4 189q-17 195 -167 345q-82 82 -181.5 125t-199.5 43
q-77 0 -132 -27.5t-116 -88.5q-84 -84 -97 -197t38 -227.5t153 -216.5t213.5 -149.5t220.5 -31t193 100.5z" />
    <glyph glyph-name="p" unicode="p" horiz-adv-x="1112" 
d="M620 1050q192 0 316.5 -147.5t124.5 -375.5q0 -122 -39.5 -226t-106 -174.5t-154.5 -110.5t-186 -40q-181 0 -315 128v-550h-168v1449l160 39h8v-157q159 165 360 165zM573 8q157 0 241 134.5t84 369.5q0 231 -77.5 367t-224.5 136q-84 0 -175 -49t-161 -130v-632
q47 -91 130.5 -143.5t182.5 -52.5z" />
    <glyph glyph-name="q" unicode="q" horiz-adv-x="1118" 
d="M1014 1042h12v-1488h-174v587q-158 -164 -360 -164q-192 0 -316.5 146.5t-124.5 375.5q0 122 39.5 226t106 174.5t155 110.5t185.5 40q191 0 327 -139zM852 190v632q-49 94 -132 151.5t-180 57.5q-157 0 -239.5 -136.5t-82.5 -372.5q0 -231 76 -365t223 -134
q87 0 177 44.5t158 122.5z" />
    <glyph glyph-name="r" unicode="r" horiz-adv-x="684" 
d="M586 1045q46 0 96 -12l-61 -158q-84 41 -107 46q-162 36 -257 -115v-807h-165v1003l158 39h7v-212q142 216 329 216z" />
    <glyph glyph-name="s" unicode="s" horiz-adv-x="804" 
d="M474 564q39 -17 58.5 -26.5t55.5 -29t55.5 -34.5t45.5 -39.5t39.5 -49t23.5 -57t10 -69.5q0 -129 -102 -205.5t-265 -76.5q-195 0 -352 105l67 162q23 -23 60 -73.5t64 -85.5t72.5 -64t95.5 -29q124 0 197.5 52t77.5 149q1 28 -14 54.5t-37 46t-59.5 41t-66.5 35
t-73 33.5q-11 5 -16 7l-78 35q-114 51 -190.5 145t-76.5 211q0 115 92 182t234 67q89 0 178 -24.5t153 -62.5l-93 -205q-21 18 -50 67t-52.5 94.5t-62.5 81.5t-83 36q-107 0 -170 -62.5t-63 -144.5q0 -35 15 -66t34 -51t55.5 -42.5t58 -33t63.5 -29.5q14 -6 20 -9z" />
    <glyph glyph-name="t" unicode="t" horiz-adv-x="733" 
d="M705 72l16 -23q-126 -73 -237 -73q-66 0 -120.5 20.5t-88 50.5t-57 66.5t-33 67.5t-9.5 54l-1 760l-154 -50l-15 81h159l174 308h8v-308h362l-49 -96l-312 65l-1 -744q0 -250 182 -250q22 0 55 12.5t51.5 21.5t69.5 37z" />
    <glyph glyph-name="u" unicode="u" horiz-adv-x="1085" 
d="M982 172l43 -149l-167 -39l-51 169v10q-84 -85 -189 -136t-211 -51q-162 0 -242.5 90t-80.5 275v662l166 39h8v-686q0 -8 -1 -33.5t-1 -43t1.5 -46t8 -49.5t16 -46.5t27.5 -43t42 -33.5t59 -24t79 -8q163 0 318 181v793l167 39h8v-870z" />
    <glyph glyph-name="v" unicode="v" horiz-adv-x="923" 
d="M915 1025l-349 -941l43 -104h-162l-441 1046h168l376 -890l326 890z" />
    <glyph glyph-name="w" unicode="w" horiz-adv-x="1482" 
d="M1473 1025l-358 -963l28 -82h-138l-254 603l-191 -514l39 -89h-152l-441 1046h168l369 -909l188 513l-167 396h141l88 -227l83 227l39 -1l-102 -274l282 -649l339 924z" />
    <glyph glyph-name="x" unicode="x" horiz-adv-x="1054" 
d="M591 572l461 -571h-200l-370 468l-438 -468h-44l461 496l-419 529h183l344 -427l384 427h50z" />
    <glyph glyph-name="y" unicode="y" horiz-adv-x="874" 
d="M826 1029h39l-371 -997l-9 -25l-6 -16l-2 -5l-1 -2l-64 -147q-32 -79 -92.5 -139t-133.5 -91.5t-143.5 -46.5t-138.5 -15l12 223q33 -8 75 -8q20 0 67.5 -8t89.5 -12t89 -1t83.5 27.5t54.5 70.5l71 176l-443 1016h168l359 -807l-37 -102z" />
    <glyph glyph-name="z" unicode="z" horiz-adv-x="884" 
d="M858 159h6l-24 -159h-826v8l623 989h-85q-67 0 -136 -17t-117 -38.5t-106 -44t-100 -30.5h-6l30 159h719v-8l-623 -989h176q67 0 137.5 17.5t120.5 39t109.5 44t101.5 29.5z" />
    <glyph glyph-name="braceleft" unicode="{" horiz-adv-x="442" 
d="M519 1513q-142 0 -204.5 -46t-62.5 -150q0 -39 10 -84.5t18 -69t28 -78.5q52 -141 52 -216q0 -84 -43 -147.5t-121 -95.5q78 -32 121 -95.5t43 -147.5q0 -75 -52 -216q-20 -55 -28 -78.5t-18 -69t-10 -84.5q0 -104 62.5 -150.5t204.5 -46.5h17v-58h-17q-193 0 -282.5 68
t-89.5 214q0 45 10.5 95t20 78.5t29.5 83.5q48 127 48 191q0 83 -52 135t-134 52h-18v58h18q83 0 134.5 51.5t51.5 134.5q0 65 -48 192q-20 55 -29.5 83.5t-20 78.5t-10.5 95q0 146 89.5 213.5t282.5 67.5h17v-58h-17z" />
    <glyph glyph-name="verticalbar" unicode="|" horiz-adv-x="286" 
d="M184 -120h-82v1691h82v-1691z" />
    <glyph glyph-name="braceright" unicode="}" horiz-adv-x="442" 
d="M374 655h17v-58h-17q-82 0 -134.5 -52.5t-52.5 -134.5q0 -64 48 -191q20 -55 29.5 -83.5t20 -78.5t10.5 -95q0 -146 -89.5 -214t-282.5 -68h-17v59h17q142 0 204.5 46t62.5 150q0 39 -10 84.5t-18 69t-28 78.5q-52 141 -52 216q0 84 43 147.5t121 95.5q-78 32 -121 95.5
t-43 147.5q0 75 52 216q20 55 28 78.5t18 69t10 84.5q0 104 -62.5 150t-204.5 46h-17v58h17q193 0 282.5 -67.5t89.5 -213.5q0 -45 -10.5 -95t-20 -78.5t-29.5 -83.5q-48 -127 -48 -192q0 -82 52 -134t135 -52z" />
    <glyph glyph-name="asciitilde" unicode="~" horiz-adv-x="915" 
d="M823 888l57 -14l-3 -16q-24 -127 -81.5 -177.5t-127.5 -50.5q-37 0 -83 15.5t-76 31t-83 45.5q-135 78 -197 78q-19 0 -35 -5t-35.5 -20t-35.5 -49t-26 -84l-3 -18l-57 14l3 16q24 127 81.5 177.5t127.5 50.5q37 0 83 -15t77 -31t82 -45q45 -26 71.5 -40t62.5 -26.5
t63 -12.5q19 0 35 5t35 20t35 49t26 84z" />
    <glyph glyph-name="nonbreakingspace" unicode="&#xa0;" horiz-adv-x="442" 
 />
    <glyph glyph-name="sterling" unicode="&#xa3;" horiz-adv-x="1040" 
d="M966 332h19l-9 -74q-4 -30 -8.5 -51t-15.5 -55t-29.5 -58t-46 -47.5t-71 -35.5t-98.5 -12q-79 0 -179 27t-182 54t-115 27q-26 0 -59 -16t-48.5 -27.5t-52.5 -40.5l-18 29q5 4 32 25t34.5 27.5t32 27.5t33.5 32t29 34t28 39.5t21 42.5t18.5 50.5t10 55.5t4.5 64
q0 104 -51 270h-180v35h168q-3 8 -12 36.5t-12 39t-10.5 36t-11 39t-9 37t-8 39.5t-6 37t-4.5 40.5t-1 38.5q0 173 99.5 273.5t264.5 100.5q249 0 388 -243l-23 -14q-75 108 -167.5 171.5t-175.5 63.5q-49 0 -85 -18.5t-56 -47.5t-31.5 -76.5t-15 -93t-3.5 -108.5
q0 -53 14 -122.5t25 -104.5t39 -124h411v-35h-399q43 -146 43 -223q0 -177 -157 -326q72 -3 136.5 -26.5t123.5 -45t123 -21.5q57 0 98.5 15t66.5 43t38 53.5t24 60.5z" />
    <glyph glyph-name="softhyphen" unicode="&#xad;" horiz-adv-x="0" 
 />
    <glyph glyph-name="Agrave" unicode="&#xc0;" horiz-adv-x="1251" 
d="M631 1521l-13 -10l-317 302h185zM692 1449l562 -1449h-232l-182 474h-613q-28 -74 -34.5 -92t-15 -39t-15.5 -37t-40 -97.5t-84 -208.5h-42q76 182 245 621l321 828h130zM232 491h601l-301 776l-254 -658z" />
    <glyph glyph-name="Aacute" unicode="&#xc1;" horiz-adv-x="1251" 
d="M896 1813l-314 -302l-14 10l144 292h184zM692 1449l562 -1449h-232l-182 474h-613q-28 -74 -34.5 -92t-15 -39t-15.5 -37t-40 -97.5t-84 -208.5h-42q76 182 245 621l321 828h130zM232 491h601l-301 776l-254 -658z" />
    <glyph glyph-name="Acircumflex" unicode="&#xc2;" horiz-adv-x="1251" 
d="M625 1694l-296 -183l-11 10l301 292h11l302 -292l-11 -10zM692 1449l562 -1449h-232l-182 474h-613q-28 -74 -34.5 -92t-15 -39t-15.5 -37t-40 -97.5t-84 -208.5h-42q76 182 245 621l321 828h130zM232 491h601l-301 776l-254 -658z" />
    <glyph glyph-name="Atilde" unicode="&#xc3;" horiz-adv-x="1245" 
d="M383 1639q-42 0 -66.5 -26t-39.5 -79l-19 4q31 182 158 182q60 0 192 -53.5t176 -53.5q42 0 66 26.5t39 80.5l17 -3q-15 -89 -52 -136t-104 -47q-61 0 -192 52.5t-175 52.5zM688 1450l562 -1450h-232l-182 474h-613q-28 -74 -34.5 -92t-15 -39t-15.5 -37t-40 -97.5
t-84 -208.5h-42q76 182 245 621l321 829h130zM227 491h602l-301 776l-254 -658z" />
    <glyph glyph-name="Adieresis" unicode="&#xc4;" horiz-adv-x="1251" 
d="M489 1591q-20 -19 -46 -19t-46 19q-19 19 -19 46.5t19 46.5q20 19 46 19t46 -19q19 -19 19 -46.5t-19 -46.5zM837 1592q-19 -19 -46 -19.5t-46 18.5t-19 46t19 47q19 19 46 18.5t46 -19.5t19 -45.5t-19 -45.5zM692 1449l562 -1449h-232l-182 474h-613q-28 -74 -34.5 -92
t-15 -39t-15.5 -37t-40 -97.5t-84 -208.5h-42q76 182 245 621l321 828h130zM232 491h601l-300 776l-255 -658z" />
    <glyph glyph-name="Aring" unicode="&#xc5;" horiz-adv-x="1251" 
d="M625 1499q-86 0 -144 55.5t-58 137.5q0 83 58 139t144 56q85 0 143.5 -56.5t58.5 -138.5q0 -81 -58.5 -137t-143.5 -56zM625 1863q-76 0 -127.5 -49t-51.5 -122q0 -72 51.5 -120.5t127.5 -48.5q75 0 126.5 49t51.5 120q0 73 -51 122t-127 49zM692 1449l562 -1449h-232
l-182 474h-613q-28 -74 -34.5 -92t-15 -39t-15.5 -37t-40 -97.5t-84 -208.5h-42q76 182 245 621l321 828h130zM232 491h601l-301 776l-254 -658z" />
    <glyph glyph-name="AE" unicode="&#xc6;" horiz-adv-x="1454" 
d="M1438 162h4l-33 -162h-858v474h-325q-1 -2 -2.5 -5.5t-1.5 -4.5q-3 -7 -7 -19v-1q-1 -3 -3.5 -8.5t-3.5 -7.5q0 -2 -1 -4t-1 -4q-5 -12 -5 -13q-4 -8 -5 -12q-2 -4 -2 -5l-3 -9q-9 -23 -15.5 -38.5t-15 -35.5t-41 -100t-82.5 -207h-41q-1 -4 -4.5 -12t-5.5 -12
q2 4 5.5 12t4.5 12h-1q56 134 118 294q13 34 37 96t43.5 112.5t36.5 94.5l321 829h828l36 -143h-4q-77 11 -259 56t-272 50q-3 0 -9 0.5t-8 0.5h-16h-133v-630h385v-35h-385v-690h133q4 0 12 0.5t13 0.5q53 3 128 18q55 11 210 55q146 42 228 53zM545 1402h-3v-8zM230 491
h322v829l-275 -710z" />
    <glyph glyph-name="Ccedilla" unicode="&#xc7;" horiz-adv-x="1327" 
d="M1302 219l11 -9q-11 -13 -35 -37q-139 -139 -325.5 -188.5t-373.5 0t-326 188.5t-188.5 326t0 373.5t188.5 325.5t326 188.5t373.5 0t325.5 -188.5l25 -25l-133 -127q-4 4 -12 12.5t-12 12.5q-140 140 -297 208t-312.5 47.5t-273.5 -138.5q-117 -117 -135.5 -278
t52.5 -323t211 -302t296 -204.5t310 -40t272 142.5q23 23 33 36zM732 -97q87 -6 139.5 -48t52.5 -102q0 -69 -56.5 -111.5t-141.5 -42.5q-76 0 -139 28l6 17q40 -17 111 -17q65 0 104.5 28t39.5 71q0 40 -39 67t-103 27h-47l63 141l36 -2z" />
    <glyph glyph-name="Egrave" unicode="&#xc8;" horiz-adv-x="1003" 
d="M553 1521l-13 -10l-316 302h184zM989 162l4 -1l-33 -161h-858v1426h828l36 -143h-4q-74 10 -270.5 58.5t-293.5 48.5h-133v-630h384v-35h-384v-690h133q95 0 303 58t288 69z" />
    <glyph glyph-name="Eacute" unicode="&#xc9;" horiz-adv-x="1003" 
d="M806 1813l-317 -302l-13 10l145 292h185zM989 162l4 -1l-33 -161h-858v1426h828l36 -143h-4q-74 10 -270.5 58.5t-293.5 48.5h-133v-630h384v-35h-384v-690h133q95 0 303 58t288 69z" />
    <glyph glyph-name="Ecircumflex" unicode="&#xca;" horiz-adv-x="1003" 
d="M497 1694l-298 -183l-12 10l304 292h11l302 -292l-12 -10zM989 162l4 -1l-33 -161h-858v1426h828l36 -143h-4q-74 10 -270.5 58.5t-293.5 48.5h-133v-630h384v-35h-384v-690h133q95 0 303 58t288 69z" />
    <glyph glyph-name="Edieresis" unicode="&#xcb;" horiz-adv-x="1003" 
d="M369 1592q-19 -19 -46 -19.5t-46 18.5t-19 46t19 47q19 19 46 18.5t46 -19.5t19 -45.5t-19 -45.5zM716 1591q-20 -19 -46 -19t-46 19q-19 19 -19 46.5t19 46.5q20 19 46 19t46 -19q20 -20 20 -47t-20 -46zM989 162l4 -1l-33 -161h-858v1426h828l36 -143h-4
q-74 10 -270.5 58.5t-293.5 48.5h-133v-630h384v-35h-384v-690h133q95 0 303 58t288 69z" />
    <glyph glyph-name="Igrave" unicode="&#xcc;" horiz-adv-x="372" 
d="M207 1521l-13 -10l-315 302h185zM102 1427l168 -2v-1426l-168 2v1426z" />
    <glyph glyph-name="Iacute" unicode="&#xcd;" horiz-adv-x="372" 
d="M476 1813l-314 -302l-13 10l143 292h184zM102 1v1426l168 -2v-1426z" />
    <glyph glyph-name="Icircumflex" unicode="&#xce;" horiz-adv-x="372" 
d="M192 1813l301 -292l-11 -10l-296 183l-296 -183l-11 10l302 292h11zM102 1v1426l168 -2v-1426z" />
    <glyph glyph-name="Idieresis" unicode="&#xcf;" horiz-adv-x="372" 
d="M-34 1684q20 20 46 20t46 -20q20 -19 20 -46.5t-20 -46.5t-46 -19t-46 19q-19 19 -19 46.5t19 46.5zM406 1683q19 -19 19 -45.5t-19 -45.5t-46 -19.5t-46 18.5q-20 19 -20 46t20 47q19 19 46 18.5t46 -19.5zM102 1v1426l167 -2v-1426z" />
    <glyph glyph-name="Ntilde" unicode="&#xd1;" horiz-adv-x="1148" 
d="M381 1639q-42 0 -66 -25.5t-39 -79.5l-17 4q15 88 52 135t104 47q61 0 192.5 -53.5t175.5 -53.5q42 0 66 26.5t39 80.5l19 -3q-31 -183 -158 -183q-60 0 -191 52.5t-177 52.5zM1020 1432h26v-1460h-12l-895 1317v-1290h-21v1325l-63 92v6h212l753 -1109v1119z" />
    <glyph glyph-name="Ograve" unicode="&#xd2;" horiz-adv-x="1531" 
d="M789 1521l-14 -10l-316 302h184zM1278 1216q139 -139 188.5 -325.5t0 -373.5t-188.5 -326t-325.5 -188.5t-373.5 0t-326 188.5t-188.5 326t0 373.5t188.5 325.5t326 188.5t373.5 0t325.5 -188.5zM1269 200q88 88 118 199t3.5 225.5t-95 229t-174.5 220.5
q-142 142 -291.5 212.5t-299.5 53.5t-267 -134q-88 -88 -117 -204.5t-2 -237t97 -241t175 -225.5q140 -140 290 -203t297.5 -38t265.5 143z" />
    <glyph glyph-name="Oacute" unicode="&#xd3;" horiz-adv-x="1531" 
d="M1057 1813l-315 -302l-13 10l143 292h185zM1278 1216q139 -139 188.5 -325.5t0 -373.5t-188.5 -326t-325.5 -188.5t-373.5 0t-326 188.5t-188.5 326t0 373.5t188.5 325.5t326 188.5t373.5 0t325.5 -188.5zM1269 200q88 88 118 199t3.5 225.5t-95 229t-174.5 220.5
q-142 142 -291.5 212.5t-299.5 53.5t-267 -134q-88 -88 -117 -204.5t-2 -237t97 -241t175 -225.5q140 -140 290 -203t297.5 -38t265.5 143z" />
    <glyph glyph-name="Ocircumflex" unicode="&#xd4;" horiz-adv-x="1531" 
d="M744 1694l-295 -183l-12 10l302 292h11l302 -292l-12 -10zM1278 1216q139 -139 188.5 -325.5t0 -373.5t-188.5 -326t-325.5 -188.5t-373.5 0t-326 188.5t-188.5 326t0 373.5t188.5 325.5t326 188.5t373.5 0t325.5 -188.5zM1269 200q88 88 118 199t3.5 225.5t-95 229
t-174.5 220.5q-142 142 -291.5 212.5t-299.5 53.5t-267 -134q-88 -88 -117 -204.5t-2 -237t97 -241t175 -225.5q140 -140 290 -203t297.5 -38t265.5 143z" />
    <glyph glyph-name="Otilde" unicode="&#xd5;" horiz-adv-x="1531" 
d="M545 1639q-42 0 -66.5 -26t-39.5 -79l-19 4q31 182 159 182q60 0 191.5 -53.5t175.5 -53.5q42 0 66.5 26.5t39.5 80.5l16 -3q-15 -89 -52 -136t-104 -47q-61 0 -192 52.5t-175 52.5zM1278 1216q139 -139 188.5 -325.5t0 -373.5t-188.5 -326t-325.5 -188.5t-373.5 0
t-326 188.5t-188.5 326t0 373.5t188.5 325.5t326 188.5t373.5 0t325.5 -188.5zM1269 200q88 88 118 199t3.5 225.5t-95 229t-174.5 220.5q-142 142 -291.5 212.5t-299.5 53.5t-267 -134q-88 -88 -117 -204.5t-2 -237t97 -241t175 -225.5q140 -140 290 -203t297.5 -38
t265.5 143z" />
    <glyph glyph-name="Odieresis" unicode="&#xd6;" horiz-adv-x="1531" 
d="M620 1591q-20 -19 -46.5 -19t-45.5 19q-20 19 -20 46.5t20 46.5q19 19 45.5 19t46.5 -19q19 -19 19 -46.5t-19 -46.5zM968 1592q-19 -19 -46 -19.5t-46 18.5q-20 19 -20 46t20 47q19 19 46 18.5t46 -19.5t19 -45.5t-19 -45.5zM1278 1216q139 -139 188.5 -325.5t0 -373.5
t-188.5 -326t-325.5 -188.5t-373.5 0t-326 188.5t-188.5 326t0 373.5t188.5 325.5t326 188.5t373.5 0t325.5 -188.5zM1269 200q88 88 118 199t3.5 225.5t-95 229t-174.5 220.5q-142 142 -291.5 212.5t-299.5 53.5t-267 -134q-88 -88 -117 -204.5t-2 -237t97 -241t175 -225.5
q140 -140 290 -203t297.5 -38t265.5 143z" />
    <glyph glyph-name="Oslash" unicode="&#xd8;" horiz-adv-x="1533" 
d="M1278 1216q139 -139 188.5 -326t0 -374t-188.5 -326q-119 -119 -276.5 -173t-319.5 -35t-301 106l-144 -198l-19 14l143 197q-60 41 -108 89q-139 139 -188.5 326t0 374t188.5 326q129 129 300.5 181t345.5 19.5t315 -143.5l127 174l19 -14l-128 -175q21 -17 46 -42z
M416 298q26 -26 53 -50l621 855q-139 130 -283 192.5t-287.5 43t-256.5 -132.5q-88 -88 -117 -204.5t-2 -237t97 -241t175 -225.5zM1269 200q88 88 118 199t3.5 225.5t-95 229t-174.5 220.5q-2 2 -6.5 6t-6.5 6l-621 -853q132 -111 269 -156.5t270.5 -15.5t242.5 139z" />
    <glyph glyph-name="Ugrave" unicode="&#xd9;" horiz-adv-x="1142" 
d="M609 1521l-13 -10l-314 302h184zM1024 1430h28v-955q0 -242 -121 -370t-359 -128q-236 0 -359 125.5t-123 362.5v962h168v-952q0 -115 15.5 -194t54 -138t106.5 -87t169 -28q197 0 309 115t112 329v958z" />
    <glyph glyph-name="Uacute" unicode="&#xda;" horiz-adv-x="1142" 
d="M864 1813l-317 -302l-13 10l145 292h185zM1024 1430h28v-955q0 -242 -121 -370t-359 -128q-236 0 -359 125.5t-123 362.5v962h168v-952q0 -115 15.5 -194t54 -138t106.5 -87t169 -28q197 0 309 115t112 329v958z" />
    <glyph glyph-name="Ucircumflex" unicode="&#xdb;" horiz-adv-x="1142" 
d="M571 1694l-296 -183l-11 10l301 292h12l301 -292l-11 -10zM1024 1430h28v-955q0 -242 -121 -370t-359 -128q-236 0 -359 125.5t-123 362.5v962h168v-952q0 -115 15.5 -194t54 -138t106.5 -87t169 -28q197 0 309 115t112 329v958z" />
    <glyph glyph-name="Udieresis" unicode="&#xdc;" horiz-adv-x="1142" 
d="M398 1572q-27 0 -46 19.5t-19 46.5t19 46t46 19t46.5 -19t19.5 -46t-19.5 -46.5t-46.5 -19.5zM793 1591q-19 -19 -46 -19t-46 19t-19 46.5t19 46.5q19 20 46 20t46 -20q19 -19 19 -46.5t-19 -46.5zM1024 1430h28v-955q0 -242 -121 -370t-359 -128q-236 0 -359 125.5
t-123 362.5v962h168v-952q0 -115 15.5 -194t54 -138t106.5 -87t169 -28q197 0 309 115t112 329v958z" />
    <glyph glyph-name="Yacute" unicode="&#xdd;" horiz-adv-x="1099" 
d="M876 1813l-314 -302l-14 10l144 292h184zM1084 1426h27q-116 -194 -340 -582l-120 -206v-638l-164 3v635l-501 788h219l437 -767l106 182z" />
    <glyph glyph-name="germandbls" unicode="&#xdf;" horiz-adv-x="1146" 
d="M872 589q60 -35 97.5 -62.5t75 -65.5t55 -84.5t17.5 -102.5q0 -132 -94.5 -212.5t-243.5 -80.5q-170 0 -301 97l64 156q19 -23 50.5 -72t54 -81t60.5 -59t81 -27q111 0 175.5 68.5t64.5 161.5q0 31 -8 59t-26 52.5t-34 42t-46.5 39t-48 32.5t-53.5 32l-71 41
q-39 22 -64.5 40t-53.5 45.5t-42.5 60.5t-14.5 72q0 41 17 77.5t44.5 65.5t60.5 57.5t66 60t60.5 66t44.5 81.5t17 101q0 114 -68 188.5t-178 74.5q-122 0 -192.5 -86.5t-70.5 -243.5v-1180l-197 -3v947h-158v41h158v137q0 98 42.5 178.5t110.5 128.5t148.5 74t162.5 26
q144 0 245.5 -77t101.5 -199q0 -56 -24.5 -105t-60.5 -81.5t-79 -66.5t-79 -61t-60.5 -63.5t-24.5 -75.5q0 -54 39 -93t109 -78z" />
    <glyph glyph-name="agrave" unicode="&#xe0;" 
d="M554 1151l-13 -10l-297 319h162zM965 39q11 0 35 4v-12q-59 -35 -112 -35q-68 0 -132 52t-67 96q-80 -74 -183.5 -114t-200.5 -40q-120 0 -195 61.5t-75 169.5q0 136 121 217.5t329 105.5q82 9 204 17v118q0 166 -65.5 247.5t-200.5 81.5q-155 0 -298 -123l-18 21
q77 70 201 108.5t238 38.5q160 0 240.5 -89t80.5 -275v-502q0 -36 1 -52.5t5.5 -39.5t14.5 -32t29 -16.5t48 -7.5zM689 182v331q-83 1 -161.5 1t-147 -13.5t-118.5 -36.5t-77 -66.5t-23 -104.5q8 -111 69.5 -166.5t160.5 -55.5q91 0 160.5 23t136.5 88z" />
    <glyph glyph-name="aacute" unicode="&#xe1;" 
d="M729 1460l-295 -319l-13 10l147 309h161zM965 39q11 0 35 4v-12q-59 -35 -112 -35q-68 0 -132 52t-67 96q-80 -74 -183.5 -114t-200.5 -40q-120 0 -195 61.5t-75 169.5q0 136 121 217.5t329 105.5q82 9 204 17v118q0 166 -65.5 247.5t-200.5 81.5q-155 0 -298 -123
l-18 21q77 70 201 108.5t238 38.5q160 0 240.5 -89t80.5 -275v-502q0 -36 1 -52.5t5.5 -39.5t14.5 -32t29 -16.5t48 -7.5zM689 182v331q-83 1 -161.5 1t-147 -13.5t-118.5 -36.5t-77 -66.5t-23 -104.5q8 -111 69.5 -166.5t160.5 -55.5q91 0 160.5 23t136.5 88z" />
    <glyph glyph-name="acircumflex" unicode="&#xe2;" 
d="M488 1338l-263 -197l-11 10l269 309h11l267 -309l-12 -10zM965 39q11 0 35 4v-12q-59 -35 -112 -35q-68 0 -132 52t-67 96q-80 -74 -183.5 -114t-200.5 -40q-120 0 -195 61.5t-75 169.5q0 136 121 217.5t329 105.5q82 9 204 17v118q0 166 -65.5 247.5t-200.5 81.5
q-155 0 -298 -123l-18 21q77 70 201 108.5t238 38.5q160 0 240.5 -89t80.5 -275v-502q0 -36 1 -52.5t5.5 -39.5t14.5 -32t29 -16.5t48 -7.5zM689 182v331q-83 1 -161.5 1t-147 -13.5t-118.5 -36.5t-77 -66.5t-23 -104.5q8 -111 69.5 -166.5t160.5 -55.5q91 0 160.5 23
t136.5 88z" />
    <glyph glyph-name="atilde" unicode="&#xe3;" 
d="M304 1271q-43 0 -66.5 -25.5t-40.5 -81.5l-17 3q31 183 156 183q49 0 112.5 -26.5t123 -53t98.5 -26.5q42 0 66.5 26t39.5 80l16 -4q-15 -88 -51.5 -135t-103.5 -47q-49 0 -112.5 27t-122.5 53.5t-98 26.5zM965 34q11 0 35 4v-11q-61 -36 -112 -36q-68 0 -132 52.5
t-67 96.5q-80 -74 -183.5 -114t-200.5 -40q-120 0 -195 61.5t-75 169.5q0 136 121 217.5t329 105.5q82 9 204 17v118q0 166 -65.5 247.5t-200.5 81.5q-155 0 -298 -123l-18 21q77 70 201 108.5t238 38.5q160 0 240.5 -89t80.5 -275v-502q0 -36 1 -52.5t5.5 -39.5t14.5 -32.5
t29 -17t48 -7.5zM689 177v332q-83 1 -161.5 1t-147 -13.5t-118.5 -36.5t-77 -66.5t-23 -104.5q8 -111 69.5 -166.5t160.5 -55.5q92 0 161 22.5t136 87.5z" />
    <glyph glyph-name="adieresis" unicode="&#xe4;" 
d="M263 1216l-9 9q-18 17 -18 42t18 42l9 9q17 17 41.5 16.5t41.5 -17.5l9 -9q17 -17 17 -41t-17 -41l-9 -9q-17 -17 -41.5 -17.5t-41.5 16.5zM596 1217l-9 8q-17 17 -17 42t17 42l9 8q17 17 41.5 17t41.5 -17l9 -8q17 -17 17 -42t-17 -42l-9 -8q-17 -17 -41.5 -17t-41.5 17
zM965 36q11 0 35 4v-12q-59 -35 -112 -35q-68 0 -132 52.5t-67 96.5q-80 -74 -183.5 -114.5t-200.5 -40.5q-120 0 -195 61.5t-75 169.5q0 136 121 217.5t329 105.5q97 11 204 18v117q0 166 -65.5 247.5t-200.5 81.5q-155 0 -298 -123l-18 21q77 70 201 108.5t238 38.5
q160 0 240.5 -89t80.5 -275v-501q0 -36 1 -52.5t5.5 -39.5t14.5 -32.5t29 -17t48 -7.5zM689 179v331q-83 1 -161.5 1t-147 -13.5t-118.5 -36.5t-77 -66.5t-23 -104.5q8 -111 69.5 -166.5t160.5 -55.5q91 0 160.5 23t136.5 88z" />
    <glyph glyph-name="aring" unicode="&#xe5;" 
d="M513 1130q-58 0 -97 37.5t-39 93.5q0 55 38.5 92t97.5 37q57 0 96.5 -37t39.5 -92t-39.5 -93t-96.5 -38zM513 1374q-51 0 -85.5 -32t-34.5 -81q0 -50 34 -83t86 -33t86.5 33t34.5 83q0 48 -35 80.5t-86 32.5zM965 35q17 0 35 3v-11q-61 -36 -112 -36q-68 0 -132 52.5
t-67 96.5q-80 -74 -183.5 -114t-200.5 -40q-120 0 -195 61.5t-75 169.5q0 136 121 217.5t329 105.5q82 9 204 17v118q0 166 -65.5 247.5t-200.5 81.5q-155 0 -298 -123l-18 21q77 70 201 108.5t238 38.5q160 0 240.5 -89t80.5 -275v-502q0 -36 1 -52.5t5.5 -39.5t14.5 -32
t29 -16.5t48 -7.5zM689 177v332q-83 1 -161.5 1t-147 -13.5t-118.5 -36.5t-77 -66.5t-23 -104.5q8 -111 69.5 -166.5t160.5 -55.5q92 0 161 22.5t136 87.5z" />
    <glyph glyph-name="ae" unicode="&#xe6;" horiz-adv-x="1699" 
d="M1641 186h36q-26 -33 -49 -56q-154 -154 -372 -154q-219 0 -373 154q-11 11 -16 17q-33 36 -66 91l-112 -98q-80 -74 -183.5 -114t-200.5 -40q-120 0 -195 61.5t-75 169.5q0 136 121 217.5t329 105.5q82 9 204 17v118q0 166 -65.5 247.5t-200.5 81.5q-81 0 -152 -30
t-146 -94l-18 22q77 70 201 108.5t238 38.5q246 0 303 -211q13 17 34 38q166 166 345 163h8h8q2 0 6 -0.5t7 -0.5l2 -1q153 -14 245 -121t102 -288q0 -5 0.5 -15.5t0.5 -16.5h-817q-6 -124 77 -244q40 -58 98 -116q103 -99 219.5 -147.5t229.5 -34.5t195 96q23 23 32 36z
M689 178v331q-83 1 -161.5 1t-147 -13.5t-118.5 -36.5t-77 -66.5t-23 -104.5q8 -111 69.5 -166.5t160.5 -55.5q91 0 160.5 23t136.5 88zM857 802q-54 -79 -65 -174h639v13v2q0 1 -3 37q0 2 -0.5 4t-0.5 3q-8 62 -25.5 111.5t-39.5 78.5t-46.5 49.5t-48 28.5t-42.5 12t-31 3
h-11q-168 0 -281 -113q-23 -23 -45 -55z" />
    <glyph glyph-name="ccedilla" unicode="&#xe7;" horiz-adv-x="1024" 
d="M968 202l25 -22l-7 -9q-8 -9 -26 -27q-76 -76 -174 -116.5t-205 -40.5h-13l-21 -45q87 -6 139.5 -48t52.5 -102q0 -69 -56 -111.5t-141 -42.5q-76 0 -139 28l5 17q40 -17 111 -17q65 0 105 28.5t40 71.5q0 39 -39.5 66.5t-103.5 27.5h-47l58 129q-192 17 -330 155
q-76 76 -116.5 174t-40.5 205t40.5 205t116.5 174t174 116.5t205 40.5t205 -40.5t174 -116.5q3 -3 9 -9.5t9 -9.5l8 -9l-130 -153q-68 124 -107 171q-84 102 -195 112q-200 18 -306 -88q-126 -126 -111 -317q15 -190 164 -339q150 -150 340 -165q108 -9 174 3.5t122 68.5
q13 13 23 26z" />
    <glyph glyph-name="egrave" unicode="&#xe8;" horiz-adv-x="1017" 
d="M569 1151l-13 -10l-295 319h160zM957 192h36q-26 -33 -48 -55q-154 -154 -373 -154t-373 154q-101 101 -137 236.5t0 271.5t137 237q167 167 345 164h8q2 0 4 -0.5t4 -0.5t7 -0.5t7 -0.5h1q153 -14 245 -121t102 -288q0 -5 0.5 -15.5t0.5 -16.5h-817q-4 -96 40.5 -182.5
t135.5 -177.5q103 -99 219 -148t229.5 -35t195.5 96q20 20 31 36zM218 863q-93 -93 -109 -228h639q0 2 -0.5 6t-0.5 6v3q0 6 -0.5 12t-1.5 13t-1 11q0 2 -0.5 4.5t-0.5 3.5q-8 62 -25.5 111.5t-39.5 78t-46.5 49t-48 28.5t-42.5 12t-31 3h-11q-168 0 -281 -113z" />
    <glyph glyph-name="eacute" unicode="&#xe9;" 
d="M827 1460l-295 -319l-13 10l148 309h160zM957 192h36q-26 -33 -48 -55q-154 -154 -373 -154t-373 154q-101 101 -137 236.5t0 271.5t137 237q167 167 345 164h8q2 0 4 -0.5t4 -0.5t7 -0.5t7 -0.5h1q153 -14 245 -121t102 -288q0 -5 0.5 -15.5t0.5 -16.5h-817
q-4 -96 40 -182.5t135 -177.5q103 -99 219.5 -148t230 -35t195.5 96q20 20 31 36zM218 863q-93 -93 -109 -228h639q0 2 -0.5 6.5t-0.5 6.5v2q0 6 -0.5 12t-1.5 13t-1 11q0 2 -0.5 4.5t-0.5 3.5q-8 62 -25.5 111.5t-39.5 78t-46.5 49t-48 28.5t-42.5 12t-31 3h-11
q-168 0 -281 -113z" />
    <glyph glyph-name="ecircumflex" unicode="&#xea;" 
d="M519 1338l-261 -197l-11 10l266 309h12l266 -309l-11 -10zM957 192h36q-26 -33 -48 -55q-154 -154 -373 -154t-373 154q-101 101 -137 236.5t0 271.5t137 237q167 167 345 164h8q2 0 4 -0.5t4 -0.5t7 -0.5t7 -0.5h1q153 -14 245 -121t102 -288q0 -5 0.5 -15.5t0.5 -16.5
h-817q-4 -96 40.5 -182.5t135.5 -177.5q103 -99 219 -148t229.5 -35t195.5 96q20 20 31 36zM218 863q-93 -93 -109 -228h639q0 2 -0.5 6.5t-0.5 6.5v2q0 6 -0.5 12t-1.5 13t-1 11q0 2 -0.5 4.5t-0.5 3.5q-8 62 -25.5 111.5t-39.5 78t-46.5 49t-48 28.5t-42.5 12t-31 3h-11
q-168 0 -281 -113z" />
    <glyph glyph-name="edieresis" unicode="&#xeb;" horiz-adv-x="1017" 
d="M390 1222q-19 -19 -46 -19.5t-46 18.5q-20 19 -20 46t20 46t46.5 19t45.5 -19t19 -45.5t-19 -45.5zM723 1221q-19 -19 -46 -19t-46 19t-19 46t19 46t46 19t46 -19t19 -46t-19 -46zM957 192h36q-26 -33 -48 -55q-154 -154 -373 -154t-373 154q-101 101 -137 236.5t0 271.5
t137 237q167 167 345 164h8q2 0 4 -0.5t4 -0.5t7 -0.5t7 -0.5h1q153 -14 245 -121t102 -288q0 -5 0.5 -15.5t0.5 -16.5h-817q-4 -96 40.5 -183t135.5 -178q103 -99 219.5 -147.5t229.5 -34.5t195 96q20 20 31 36zM218 863q-93 -93 -109 -228h639q0 2 -0.5 6t-0.5 6v3
q0 6 -0.5 12t-1.5 13t-1 11q0 2 -0.5 4.5t-0.5 3.5q-8 62 -25.5 111.5t-39.5 78t-46.5 49t-48 28.5t-42.5 12t-31 3h-11q-168 0 -281 -113z" />
    <glyph glyph-name="igrave" unicode="&#xec;" horiz-adv-x="350" 
d="M196 1151l-13 -9l-294 318h161zM249 1042h8v-1042h-166v1003z" />
    <glyph glyph-name="iacute" unicode="&#xed;" horiz-adv-x="350" 
d="M465 1460l-296 -318l-13 9l148 309h161zM92 1003l158 39h8v-1042h-166v1003z" />
    <glyph glyph-name="icircumflex" unicode="&#xee;" horiz-adv-x="350" 
d="M203 1460l268 -309l-11 -9l-262 196l-260 -196l-12 9l266 309h11zM92 1003l158 39h8v-1042h-166v1003z" />
    <glyph glyph-name="idieresis" unicode="&#xef;" horiz-adv-x="348" 
d="M-49 1309q19 19 46 19t46 -19t19 -46t-19 -46t-46 -19t-46 19t-19 46t19 46zM376 1308q19 -19 19 -45.5t-19 -45.5t-46 -19.5t-46 18.5q-20 19 -20 46.5t20 46.5q19 19 46 18.5t46 -19.5zM91 1003l158 39h7v-1042h-165v1003z" />
    <glyph glyph-name="ntilde" unicode="&#xf1;" horiz-adv-x="1071" 
d="M357 1271q-42 0 -66.5 -26t-39.5 -81l-18 3q31 183 157 183q48 0 112 -26.5t123 -53t98 -26.5q42 0 66 26t39 80l17 -4q-28 -182 -156 -182q-49 0 -112 27t-122 53.5t-98 26.5zM662 1052q323 0 323 -364v-685h-167v669q0 10 1.5 38.5t2.5 51t-2 55t-10 57.5t-22.5 52
t-39 44.5t-61.5 29t-87 11.5q-91 0 -170 -42t-173 -132v-834h-165v1002l157 40h8v-171q98 91 194.5 134.5t210.5 43.5z" />
    <glyph glyph-name="ograve" unicode="&#xf2;" horiz-adv-x="1165" 
d="M621 1151l-13 -10l-296 319h161zM962 896q76 -76 116.5 -174t40.5 -206t-40.5 -206t-116.5 -174t-174 -116.5t-206 -40.5t-206 40.5t-174 116.5q-103 103 -139.5 241.5t0 277t139.5 241.5t241.5 139.5t277 0t241.5 -139.5zM942 156q57 57 71.5 135t4.5 188
q-17 195 -167 345q-82 82 -181.5 125t-199.5 43q-77 0 -132 -27t-116 -88q-84 -84 -97 -197t38 -228t153 -217q156 -156 325 -180.5t301 101.5z" />
    <glyph glyph-name="oacute" unicode="&#xf3;" horiz-adv-x="1165" 
d="M856 1460l-295 -319l-13 10l147 309h161zM962 887q76 -76 116.5 -174t40.5 -206t-40.5 -206t-116.5 -174t-174 -117t-206 -41t-206 41t-174 117q-103 103 -139.5 241t0 276.5t139.5 241.5t241.5 140t277 0.5t241.5 -139.5zM942 146q57 57 71.5 135.5t4.5 188.5
q-17 194 -167 344q-82 82 -181.5 125t-199.5 43q-77 0 -132 -27t-116 -88q-84 -84 -97 -197t38 -228t153 -217q156 -156 325 -180.5t301 101.5z" />
    <glyph glyph-name="ocircumflex" unicode="&#xf4;" horiz-adv-x="1165" 
d="M584 1338l-263 -197l-11 10l268 309h12l266 -309l-11 -10zM962 888q157 -157 157 -379q0 -108 -40.5 -206t-116.5 -174t-174 -117t-206 -41t-206 41t-174 117q-103 103 -139.5 241t0 276.5t139.5 241.5t241.5 139.5t277 0t241.5 -139.5zM942 148q57 57 71.5 135.5
t4.5 188.5q-17 194 -167 344q-82 82 -181.5 125t-199.5 43q-77 0 -132 -27t-116 -88q-84 -84 -97 -197t38 -228t153 -217q102 -101 213.5 -148.5t220 -31t192.5 100.5z" />
    <glyph glyph-name="otilde" unicode="&#xf5;" horiz-adv-x="1165" 
d="M375 1271q-42 0 -66.5 -26t-39.5 -81l-18 3q31 183 157 183q48 0 112 -26.5t123 -53t98 -26.5q42 0 66 26t39 80l17 -4q-15 -88 -52 -135t-104 -47q-49 0 -112 27t-122 53.5t-98 26.5zM962 896q76 -76 116.5 -174.5t40.5 -205.5q0 -108 -40.5 -206t-116.5 -174
t-174 -116.5t-206 -40.5t-206 40.5t-174 116.5q-103 103 -139.5 241.5t0 277t139.5 241.5t241.5 139.5t277 0t241.5 -139.5zM943 156q57 57 71 134.5t4 188.5q-17 195 -167 345q-82 82 -181.5 125t-199.5 43q-77 0 -132 -27t-116 -88q-84 -84 -97 -197t38 -228t153 -217
q156 -156 325.5 -180.5t301.5 101.5z" />
    <glyph glyph-name="odieresis" unicode="&#xf6;" horiz-adv-x="1165" 
d="M447 1222q-19 -19 -46 -19.5t-46 18.5t-19 46t19 46q20 19 46.5 19t45.5 -19t19 -45.5t-19 -45.5zM780 1221q-19 -19 -46 -19t-46 19t-19 46t19 46t46 19t46 -19t19 -46t-19 -46zM962 897q76 -76 116.5 -174t40.5 -206t-40.5 -206t-116.5 -174t-174 -117t-206 -41
t-206 41t-174 117q-103 103 -139.5 241t0 276.5t139.5 241.5t241.5 140t277 0.5t241.5 -139.5zM943 156q57 57 71 135t4 189q-17 194 -167 344q-82 82 -181.5 125t-199.5 43q-77 0 -132 -27t-116 -88q-84 -84 -97 -197t38 -228t153 -217q156 -156 325.5 -180.5t301.5 101.5z
" />
    <glyph glyph-name="oslash" unicode="&#xf8;" horiz-adv-x="1167" 
d="M962 894q76 -76 116.5 -174t40.5 -206t-40.5 -206t-116.5 -174t-174 -117t-206 -41q-157 0 -288 85l-106 -148l-19 13l105 148q-43 31 -72 60q-103 103 -139.5 241.5t0 277t139.5 241.5q93 93 216.5 132t249.5 18.5t230 -96.5l85 120l19 -14l-85 -120q20 -15 45 -40z
M316 232q13 -13 43 -39l465 652q-161 144 -354 144q-77 0 -132 -27t-116 -88q-84 -84 -97 -197t38 -228t153 -217zM942 153q57 57 71.5 135.5t4.5 188.5q-17 195 -167 345q-1 2 -4 4t-5 3l-465 -652q96 -78 196 -110t196.5 -11t172.5 97z" />
    <glyph glyph-name="ugrave" unicode="&#xf9;" horiz-adv-x="1085" 
d="M606 1151l-13 -10l-297 319h161zM982 175l43 -149l-168 -39l-50 168v10q-84 -85 -189 -135.5t-211 -50.5q-162 0 -242.5 89.5t-80.5 274.5v662l166 39h8v-685q0 -8 -1 -33.5t-1 -43t1.5 -46t8 -49.5t16 -46.5t27.5 -43t42 -33.5t59 -24t79 -8q164 0 318 180v793l167 39h8
v-869z" />
    <glyph glyph-name="uacute" unicode="&#xfa;" horiz-adv-x="1085" 
d="M788 1460l-297 -319l-13 10l148 309h162zM982 175l43 -149l-168 -39l-50 168v10q-84 -85 -189 -135.5t-211 -50.5q-162 0 -242.5 89.5t-80.5 274.5v662l166 39h8v-685q0 -8 -1 -33.5t-1 -43t1.5 -46t8 -49.5t16 -46.5t27.5 -43t42 -33.5t59 -24t79 -8q164 0 318 180v793
l167 39h8v-869z" />
    <glyph glyph-name="ucircumflex" unicode="&#xfb;" horiz-adv-x="1085" 
d="M552 1338l-263 -197l-11 10l268 309h12l266 -309l-11 -10zM982 175l43 -149l-168 -39l-50 168v10q-84 -85 -189 -135.5t-211 -50.5q-162 0 -242.5 89.5t-80.5 274.5v662l166 39h8v-685q0 -8 -1 -33.5t-1 -43t1.5 -46t8 -49.5t16 -46.5t27.5 -43t42 -33.5t59 -24t79 -8
q164 0 318 180v793l167 39h8v-869z" />
    <glyph glyph-name="udieresis" unicode="&#xfc;" horiz-adv-x="1083" 
d="M425 1221q-19 -19 -46 -19t-46 19t-19 46t19 46t46 19t46 -19t19 -46t-19 -46zM758 1222q-19 -19 -46 -19.5t-46 18.5q-20 19 -20 46t20 46t46.5 19t45.5 -19t19 -45.5t-19 -45.5zM980 184l43 -149l-168 -39l-50 168v10q-84 -85 -189 -135.5t-211 -50.5
q-162 0 -242.5 89.5t-80.5 274.5v662l166 39h8v-685q0 -8 -1 -33.5t-1 -43t1.5 -46t8 -49.5t16 -46.5t27.5 -43t42 -33.5t59 -24t79 -8q164 0 318 180v793l167 39h8v-869z" />
    <glyph glyph-name="yacute" unicode="&#xfd;" horiz-adv-x="876" 
d="M718 1460l-297 -319l-13 10l148 309h162zM828 1020l39 -1l-371 -997l-9 -25l-6 -16l-2 -5l-1 -2l-64 -147q-32 -79 -92.5 -139t-133.5 -91.5t-143.5 -46.5t-138.5 -15l12 223q33 -8 75 -8q20 0 67.5 -8t89.5 -12t89 -1t83.5 27.5t54.5 70.5l71 176l-443 1017h168
l359 -808l-37 -102z" />
    <glyph glyph-name="ydieresis" unicode="&#xff;" horiz-adv-x="876" 
d="M324 1221q-19 -19 -46 -19t-46 19t-19 46t19 46t46 19t46 -19t19 -46t-19 -46zM658 1222q-19 -19 -46 -19.5t-46 18.5q-20 19 -20 46t20 46t46.5 19t45.5 -19t19 -45.5t-19 -45.5zM828 1028l39 -1l-371 -996l-9 -26l-6 -15l-2 -5l-1 -2l-64 -147q-32 -79 -92.5 -139
t-133.5 -91.5t-143.5 -46.5t-138.5 -15l12 222q29 -7 75 -7q20 0 67.5 -8t89.5 -12t89 -1t83.5 27.5t54.5 70.5l71 176l-443 1016h168l359 -808z" />
    <glyph glyph-name="dotlessi" unicode="&#x131;" horiz-adv-x="350" 
d="M250 1042h8v-1042h-166v1003z" />
    <glyph glyph-name="OE" unicode="&#x152;" horiz-adv-x="1798" 
d="M1783 163h4l-33 -161h-857q-173 -31 -344 20t-300 180q-139 139 -188.5 326t0 373.5t188.5 325.5q129 129 300 180.5t344 19.5h828l35 -142h-4q-74 10 -270.5 58.5t-293.5 48.5h-133v-630h385v-36h-385v-689h133q95 0 303 57.5t288 68.5zM416 309q113 -113 236.5 -176.5
t244.5 -70.5v1199q-113 66 -222.5 86.5t-216.5 -11t-195 -119.5t-117 -204.5t-2 -237t97 -241t175 -225.5z" />
    <glyph glyph-name="oe" unicode="&#x153;" horiz-adv-x="1165" 
d="M962 894q76 -76 116.5 -174t40.5 -206t-40.5 -206t-116.5 -174t-174 -117t-206 -41t-206 41t-174 117q-103 103 -139.5 241.5t0 277t139.5 241.5t241.5 139.5t277 0t241.5 -139.5zM943 153q57 57 71 135t4 189q-17 194 -167 344q-82 82 -181.5 125t-199.5 43
q-77 0 -132 -27t-116 -88q-84 -84 -97 -197t38 -228t153 -217q156 -156 325.5 -180.5t301.5 101.5z" />
    <glyph glyph-name="Scaron" unicode="&#x160;" horiz-adv-x="962" 
d="M486 1511h-11l-302 292l12 10l295 -183l296 183l12 -10zM566 776q71 -35 113 -57.5t95 -61t81.5 -76t48.5 -92.5t20 -120q0 -93 -37.5 -168.5t-101 -123t-143.5 -73t-168 -25.5q-110 0 -228 31t-209 78l89 192q27 -25 75 -84t84.5 -101t90 -76.5t104.5 -34.5
q148 0 251 96t103 232q0 48 -15.5 88t-36 65t-60 50.5t-67.5 38.5t-79 35t-76 34l-98 47q-67 32 -124.5 73.5t-107.5 96t-79 124t-29 145.5q0 149 115.5 245.5t299.5 96.5q104 0 208.5 -31t181.5 -78l-109 -208q-27 25 -62.5 83t-62.5 105t-72.5 85t-97.5 38
q-138 0 -222.5 -86t-84.5 -201q0 -43 10.5 -80.5t34 -68.5t48 -55t65.5 -49t72 -41.5t82 -40.5z" />
    <glyph glyph-name="scaron" unicode="&#x161;" horiz-adv-x="804" 
d="M388 1141h-11l-269 310l11 9l263 -195l261 195l12 -9zM474 564q39 -17 58.5 -26.5t55.5 -29t55.5 -34.5t45.5 -39.5t39.5 -49t23.5 -57t10 -69.5q0 -129 -102 -205.5t-265 -76.5q-195 0 -352 105l67 162q23 -23 60 -73.5t64 -85.5t72.5 -64t95.5 -29q124 0 197.5 52
t77.5 149q1 28 -14 54.5t-37 46t-59.5 41t-66.5 35t-73 33.5q-11 5 -16 7l-78 36q-114 51 -190 144.5t-76 210.5q0 115 91.5 182t233.5 67q89 0 178 -24t153 -62l-93 -206q-21 18 -50 67.5t-52.5 94.5t-62.5 81.5t-83 36.5q-107 0 -170 -62.5t-63 -144.5q0 -35 15 -66
t35 -52t55 -43t59.5 -33.5t63.5 -29.5q6 -3 10 -4.5t8 -3.5z" />
    <glyph glyph-name="Ydieresis" unicode="&#x178;" horiz-adv-x="1099" 
d="M473 1592q-19 -19 -46 -19.5t-46 18.5t-19 46t19 47q19 19 46 18.5t46 -19.5t19 -45.5t-19 -45.5zM820 1591q-20 -19 -46 -19t-46 19q-19 19 -19 46.5t19 46.5q20 19 46.5 19t45.5 -19q20 -20 20 -47t-20 -46zM1084 1426h27q-153 -259 -340 -582l-120 -206v-638l-163 3
v635l-502 788h219l437 -767l106 182z" />
    <glyph glyph-name="zcaron" unicode="&#x17e;" horiz-adv-x="884" 
d="M446 1141h-11l-269 310l11 9l263 -195l261 195l12 -9zM858 165h6l-24 -159h-826v8l623 989h-85q-67 0 -136 -17t-117 -38.5t-106 -44t-100 -30.5h-6l30 159h719v-7l-623 -989h176q67 0 137.5 17t120.5 38.5t109.5 44t101.5 29.5z" />
    <glyph glyph-name="quoteright" unicode="&#x2019;" horiz-adv-x="311" 
d="M184 1454q79 -67 79 -168q0 -79 -48.5 -151t-131.5 -117l-13 -7l-29 40l15 10q94 64 94 146q0 69 -67 131q-25 23 -25 56q0 32 23 55q21 21 51 22.5t52 -17.5z" />
    <glyph glyph-name="quotedblleft" unicode="&#x201c;" horiz-adv-x="610" 
d="M227 1487l13 7l29 -40l-15 -10q-94 -64 -94 -146q0 -69 67 -131q25 -23 25 -56q0 -32 -23 -55t-55 -23q-28 0 -48 17q-79 67 -79 169q0 79 48.5 151t131.5 117zM568 1444q-95 -65 -95 -146q0 -69 67 -131q25 -23 25 -56t-22 -55q-23 -23 -56 -23q-28 0 -48 17
q-79 67 -79 169q0 79 48.5 151t131.5 117l13 7l29 -40z" />
    <glyph glyph-name="quotedblright" unicode="&#x201d;" horiz-adv-x="624" 
d="M184 1454q79 -67 79 -168q0 -79 -48 -151t-131 -117l-14 -7l-29 40l15 10q94 64 94 146q0 69 -67 131q-25 23 -25 56q0 32 23 55q21 21 51 22.5t52 -17.5zM498 1454q78 -66 78 -168q0 -79 -48 -151t-131 -117l-14 -7l-29 40l15 10q94 64 94 146q0 69 -66 131
q-25 23 -25 56t22 55q21 21 51.5 22.5t52.5 -17.5z" />
    <glyph glyph-name="Euro" unicode="&#x20ac;" horiz-adv-x="1253" 
d="M1198 215l20 -22q-180 -194 -437 -194q-240 0 -412 164t-205 443h-127v35h123q-4 54 -4 87q0 56 6 105h-125v36h129q38 275 214.5 439t431.5 164q236 0 398 -143l-106 -145q-29 31 -65 83.5t-59.5 84.5t-63.5 58t-89 26q-201 0 -315.5 -150t-143.5 -417h452l-9 -36h-446
q-2 -24 -2 -74q0 -72 5 -118h380l-12 -35h-362q87 -569 447 -569q96 0 194 47.5t183 130.5z" />
    </font>
</defs>
</svg>
